<svg width="16" height="16" viewBox="0 0 16 16" fill="none" xmlns="http://www.w3.org/2000/svg">
<mask id="mask0_1464_2661" style="mask-type:alpha" maskUnits="userSpaceOnUse" x="0" y="0" width="16" height="16">
<rect width="16" height="16" fill="#D9D9D9"/>
</mask>
<g mask="url(#mask0_1464_2661)">
<path d="M7.05318 9.43092L5.50452 7.88208C5.41218 7.78986 5.29613 7.74264 5.15635 7.74042C5.01668 7.7383 4.89852 7.78553 4.80185 7.88208C4.70529 7.97875 4.65702 8.09586 4.65702 8.23342C4.65702 8.37097 4.70529 8.48808 4.80185 8.58475L6.63135 10.4142C6.7519 10.5347 6.89252 10.5949 7.05318 10.5949C7.21385 10.5949 7.35446 10.5347 7.47502 10.4142L11.184 6.70525C11.2762 6.61292 11.3235 6.49686 11.3257 6.35708C11.3278 6.21741 11.2806 6.09925 11.184 6.00258C11.0873 5.90603 10.9702 5.85775 10.8327 5.85775C10.6951 5.85775 10.578 5.90603 10.4813 6.00258L7.05318 9.43092ZM8.00052 14.3334C7.12452 14.3334 6.30113 14.1672 5.53035 13.8347C4.75957 13.5023 4.08913 13.0511 3.51902 12.4812C2.9489 11.9114 2.49752 11.2412 2.16485 10.4707C1.83229 9.7003 1.66602 8.87714 1.66602 8.00125C1.66602 7.12525 1.83224 6.30186 2.16468 5.53108C2.49713 4.7603 2.94829 4.08986 3.51818 3.51975C4.08807 2.94964 4.75824 2.49825 5.52868 2.16558C6.29913 1.83303 7.12229 1.66675 7.99818 1.66675C8.87418 1.66675 9.69757 1.83297 10.4683 2.16541C11.2391 2.49786 11.9096 2.94903 12.4797 3.51891C13.0498 4.0888 13.5012 4.75897 13.8338 5.52941C14.1664 6.29986 14.3327 7.12303 14.3327 7.99891C14.3327 8.87492 14.1665 9.6983 13.834 10.4691C13.5016 11.2399 13.0504 11.9103 12.4805 12.4804C11.9106 13.0505 11.2405 13.5019 10.47 13.8346C9.69957 14.1671 8.8764 14.3334 8.00052 14.3334Z" fill="#26A649"/>
</g>
</svg>
