<svg width="12" height="10" viewBox="0 0 12 10" fill="none" xmlns="http://www.w3.org/2000/svg">
<path d="M7.131 9.63078C7.189 9.57428 7.437 9.36094 7.641 9.1622C8.924 7.99708 11.024 4.95762 11.665 3.36678C11.768 3.12518 11.986 2.51437 12 2.18802C12 1.8753 11.928 1.5772 11.782 1.29274C11.578 0.93814 11.257 0.653678 10.878 0.497809C10.615 0.397468 9.828 0.241598 9.814 0.241598C8.953 0.0857288 7.554 1.94341e-07 6.008 2.61919e-07C4.535 3.26306e-07 3.193 0.085729 2.319 0.213347C2.305 0.22796 1.327 0.383829 0.991999 0.554311C0.379999 0.867024 -3.72516e-07 1.47784 -3.43942e-07 2.13152L-3.41473e-07 2.18802C0.015 2.61374 0.395 3.50901 0.409 3.50901C1.051 5.01413 3.048 7.98344 4.375 9.17681C4.375 9.17681 4.716 9.51291 4.929 9.65904C5.235 9.88699 5.614 10 5.993 10C6.416 10 6.81 9.87238 7.131 9.63078Z" fill="#414141"/>
</svg>
