<svg width="51" height="52" viewBox="0 0 51 52" fill="none" xmlns="http://www.w3.org/2000/svg">
<path fill-rule="evenodd" clip-rule="evenodd" d="M38.6994 50.3136H8.23594C7.04967 50.3136 6.08203 49.3461 6.08203 48.1598V16.7044C6.08203 16.1112 6.29348 15.6008 6.71292 15.1814L16.6187 5.27542C17.0381 4.85607 17.5486 4.64453 18.1417 4.64453H38.6993C39.8856 4.64453 40.8531 5.61207 40.8531 6.79834V48.1598C40.8532 49.3461 39.8857 50.3136 38.6994 50.3136Z" fill="#E2E3E3"/>
<path fill-rule="evenodd" clip-rule="evenodd" d="M35.7404 47.3546H5.27696C4.09069 47.3546 3.12305 46.3871 3.12305 45.2008V13.7454C3.12305 13.1522 3.33449 12.6418 3.75393 12.2224L13.6597 2.31643C14.0792 1.89699 14.5896 1.68555 15.1828 1.68555H35.7404C36.9267 1.68555 37.8942 2.65309 37.8942 3.83936V45.2007C37.8943 46.3871 36.9267 47.3546 35.7404 47.3546Z" fill="#EFF4F7"/>
<path fill-rule="evenodd" clip-rule="evenodd" d="M13.6606 2.31632L3.7547 12.2222C3.56314 12.4137 3.41499 12.6243 3.31055 12.8531H12.3466C13.4176 12.8531 14.2913 11.9795 14.2913 10.9083V1.87207C14.0626 1.97661 13.8521 2.12476 13.6606 2.31632Z" fill="#E2E3E3"/>
<path fill-rule="evenodd" clip-rule="evenodd" d="M22.6814 6.24033C22.2465 6.24033 21.8939 5.88773 21.8939 5.45283C21.8939 5.01794 22.2465 4.66533 22.6814 4.66533H34.3375C34.7724 4.66533 35.125 5.01794 35.125 5.45283C35.125 5.88773 34.7724 6.24033 34.3375 6.24033H22.6814ZM22.6814 9.35332C22.2465 9.35332 21.8939 9.00072 21.8939 8.56582C21.8939 8.13092 22.2465 7.77832 22.6814 7.77832H34.3375C34.7724 7.77832 35.125 8.13092 35.125 8.56582C35.125 9.00072 34.7724 9.35332 34.3375 9.35332H22.6814ZM22.6814 12.4663C22.2465 12.4663 21.8939 12.1137 21.8939 11.6788C21.8939 11.2439 22.2465 10.8913 22.6814 10.8913H34.3375C34.7724 10.8913 35.125 11.2439 35.125 11.6788C35.125 12.1137 34.7724 12.4663 34.3375 12.4663H22.6814ZM19.373 4.64752C19.8062 4.6424 20.1616 4.98949 20.1666 5.42271C20.1717 5.85594 19.8247 6.21129 19.3914 6.21641L17.8592 6.23728C17.4259 6.2424 17.0706 5.89531 17.0655 5.46209C17.0603 5.02886 17.4074 4.6735 17.8406 4.66839L19.373 4.64752ZM17.85 9.35332C17.4151 9.35332 17.0625 9.00072 17.0625 8.56582C17.0625 8.13092 17.4151 7.77832 17.85 7.77832H19.3823C19.8172 7.77832 20.1698 8.13092 20.1698 8.56582C20.1698 9.00072 19.8172 9.35332 19.3823 9.35332H17.85ZM19.373 10.8736C19.8062 10.8685 20.1616 11.2156 20.1666 11.6488C20.1717 12.082 19.8247 12.4374 19.3914 12.4425L17.8592 12.4634C17.4259 12.4685 17.0706 12.1214 17.0655 11.6882C17.0603 11.2549 17.4074 10.8996 17.8406 10.8945L19.373 10.8736Z" fill="#B4D2D7"/>
<path fill-rule="evenodd" clip-rule="evenodd" d="M31.5814 25.5215L32.1805 40.3042H27.7534L28.3525 25.5215H31.5814ZM12.6658 25.5215L13.2649 40.3042H8.83789L9.43698 25.5215H12.6658ZM18.9709 25.5215L19.57 40.3042H15.143L15.7421 25.5215H18.9709ZM25.2762 25.5215L25.8753 40.3042H21.4482L22.0473 25.5215H25.2762Z" fill="#8D9CA8"/>
<path fill-rule="evenodd" clip-rule="evenodd" d="M8.06146 40.2236H32.9575L34.1556 43.1005H6.86328L8.06146 40.2236ZM7.16283 23.8691H33.856L32.6579 26.6183H8.36101L7.16283 23.8691Z" fill="#7A8C98"/>
<path fill-rule="evenodd" clip-rule="evenodd" d="M6.31198 42.1662H34.7071L35.3062 44.0354H5.71289L6.31198 42.1662ZM20.5095 15.5771L35.3062 23.3145L34.7071 24.6351H6.31198L5.71289 23.3145L20.5095 15.5771Z" fill="#8D9CA8"/>
<path fill-rule="evenodd" clip-rule="evenodd" d="M20.5091 22.5937C21.6922 22.5937 22.657 21.6288 22.657 20.4458C22.657 19.2627 21.6922 18.2979 20.5091 18.2979C19.3261 18.2979 18.3613 19.2627 18.3613 20.4458C18.3612 21.6288 19.3261 22.5937 20.5091 22.5937Z" fill="#EFF4F7"/>
<path d="M48.1597 28.325C49.4344 23.8868 46.8698 19.2555 42.4315 17.9809C37.9932 16.7062 33.3619 19.2707 32.0873 23.709C30.8126 28.1472 33.3772 32.7784 37.8155 34.0531C42.2538 35.3278 46.8851 32.7632 48.1597 28.325Z" fill="#FFDA2D"/>
<path d="M45.5257 28.2379C46.7603 25.2594 45.3466 21.8439 42.368 20.6093C39.3895 19.3747 35.974 20.7884 34.7394 23.767C33.5048 26.7456 34.9185 30.161 37.8971 31.3956C40.8756 32.6303 44.2911 31.2165 45.5257 28.2379Z" fill="#FDB800"/>
<path d="M42.529 23.9543L42.2598 24.9041H37.2188L37.4879 23.9543H42.529ZM40.0757 29.9375L37.3226 26.596L37.3149 25.8462H38.6799C39.0209 25.8462 39.3093 25.7936 39.5451 25.6885C39.7809 25.5834 39.9604 25.4309 40.0834 25.231C40.2065 25.0284 40.268 24.7823 40.268 24.4927C40.268 24.062 40.1398 23.7198 39.8835 23.466C39.6271 23.2122 39.226 23.0853 38.6799 23.0853H37.2188L37.4995 22.0625H38.6799C39.3157 22.0625 39.8399 22.1638 40.2526 22.3663C40.6653 22.5688 40.973 22.8495 41.1755 23.2084C41.378 23.5673 41.4792 23.9813 41.4792 24.4504C41.4792 24.8682 41.3959 25.2463 41.2293 25.5847C41.0627 25.9231 40.7974 26.1987 40.4333 26.4114C40.0693 26.6242 39.5912 26.7485 38.9991 26.7844L38.9645 26.7921L41.4792 29.8721V29.9375H40.0757ZM42.5328 22.0625L42.2598 23.02L38.23 22.9969L38.5031 22.0625H42.5328Z" fill="#FFDA2D"/>
</svg>
