<svg width="120" height="120" viewBox="0 0 120 120" fill="none" xmlns="http://www.w3.org/2000/svg">
<g clip-path="url(#clip0_219_18497)">
<path d="M118.676 24.2836L118.657 24.1055C118.049 18.2723 115.453 12.8257 111.305 8.68039C107.156 4.53508 101.707 1.94343 95.8734 1.34062C87.3211 0.45 73.2281 0 60 0C46.7719 0 32.6789 0.45 24.1266 1.34062C18.2928 1.94343 12.8442 4.53508 8.69544 8.68039C4.54671 12.8257 1.95058 18.2723 1.34297 24.1055L1.32422 24.2836C0.583594 31.3758 0 32.5148 0 47.4727C0 62.4305 0.583594 64.8445 1.32422 71.9391L1.34297 72.1148C1.95058 77.9481 4.54671 83.3946 8.69544 87.5399C12.8442 91.6852 18.2928 94.2769 24.1266 94.8797C28.8445 95.3719 35.25 95.7281 42.2648 95.9508L55.8773 117.567C56.3469 118.312 56.9977 118.926 57.7688 119.352C58.54 119.777 59.4064 120 60.2871 120C61.1679 120 62.0342 119.777 62.8054 119.352C63.5765 118.926 64.2273 118.312 64.6969 117.567L78.3211 95.932C85.1063 95.6977 91.2867 95.3578 95.8711 94.8797C101.705 94.2774 107.154 91.686 111.304 87.5406C115.453 83.3952 118.049 77.9484 118.657 72.1148L118.676 71.9367C119.416 64.8445 120 62.4305 120 47.4727C120 32.5148 119.416 31.3781 118.676 24.2836Z" fill="#EB4E2C"/>
<path d="M1.34297 72.1148C1.48449 73.4993 1.74084 74.8697 2.10938 76.2117C10.3241 79.781 19.1871 81.6161 28.1438 81.6023C64.2117 81.6023 93.4524 52.3617 93.4524 16.2914C93.4547 11.13 92.8466 5.98649 91.6406 0.967969C83.0906 0.325781 71.2359 0 60 0C46.7719 0 32.6789 0.45 24.1266 1.34062C18.2928 1.94343 12.8442 4.53508 8.69544 8.68039C4.54671 12.8257 1.95058 18.2722 1.34297 24.1055L1.32422 24.2836C0.583594 31.3758 0 32.5148 0 47.4727C0 62.4305 0.583594 64.8445 1.32422 71.9391L1.34297 72.1148Z" fill="#F5775C"/>
<path d="M59.9758 83.6883C58.4031 83.6855 56.8665 83.2166 55.5602 82.3409C54.2539 81.4651 53.2366 80.2218 52.6366 78.768C52.0367 77.3142 51.8812 75.7153 52.1897 74.1731C52.4982 72.631 53.257 71.2149 54.37 70.1039C55.483 68.9928 56.9005 68.2366 58.4431 67.9308C59.9858 67.625 61.5845 67.7833 63.0372 68.3858C64.4899 68.9883 65.7314 70.0079 66.6049 71.3157C67.4783 72.6235 67.9445 74.1609 67.9445 75.7336C67.9408 77.8446 67.0996 79.8679 65.6056 81.3593C64.1116 82.8507 62.0868 83.6883 59.9758 83.6883ZM67.6914 56.2922C67.5593 57.5225 67.0033 58.6685 66.1188 59.5336C65.2222 60.4078 64.0554 60.9515 62.8094 61.0758H62.7719C61.9939 61.166 61.2113 61.2114 60.4281 61.2118C59.4889 61.2162 58.5501 61.1709 57.6156 61.0758H57.5781C56.334 60.9499 55.1691 60.4063 54.2734 59.5336C53.3901 58.6685 52.8343 57.5237 52.7008 56.2946C52.5109 54.4993 52.4148 42.0329 52.4148 39.2555C52.4148 36.4782 52.5109 23.9766 52.7008 22.1836C52.8347 20.9539 53.3905 19.8085 54.2734 18.9422C55.1683 18.0697 56.3323 17.5261 57.5758 17.4H57.6133C58.5477 17.307 59.4875 17.2788 60.4258 17.3157C61.208 17.2785 61.992 17.3067 62.7695 17.4H62.8094C64.0521 17.5262 65.2154 18.0699 66.1094 18.9422C66.9932 19.808 67.549 20.9536 67.682 22.1836C67.8742 23.9766 67.9703 36.4805 67.9703 39.2555C67.9703 42.0305 67.8836 54.4969 67.6914 56.2922Z" fill="white"/>
</g>
<defs>
<clipPath id="clip0_219_18497">
<rect width="120" height="120" fill="white"/>
</clipPath>
</defs>
</svg>
