<svg width="18" height="21" viewBox="0 0 18 21" fill="none" xmlns="http://www.w3.org/2000/svg">
<path d="M16.4305 2.60042C16.8836 2.70002 17.2879 2.95398 17.5743 3.31882C17.8607 3.68367 18.0114 4.13672 18.0005 4.60042V8.63042C17.9999 11.2667 17.2086 13.8423 15.729 16.0242C14.2494 18.2062 12.1495 19.8943 9.70055 20.8704C9.24912 21.0391 8.75197 21.0391 8.30055 20.8704C5.85159 19.8943 3.75165 18.2062 2.27205 16.0242C0.79245 13.8423 0.00120145 11.2667 0.000544563 8.63042V4.56042C-0.0102748 4.09672 0.140414 3.64367 0.426818 3.27882C0.713222 2.91398 1.11753 2.66002 1.57054 2.56042L8.57055 1.01042C8.85295 0.940536 9.14814 0.940536 9.43055 1.01042L16.4305 2.60042Z" fill="#20BF55"/>
<path d="M8.23088 13.7699C7.96995 13.7715 7.71874 13.671 7.53088 13.4899L5.25088 11.2499C5.15715 11.157 5.08275 11.0464 5.03199 10.9245C4.98122 10.8027 4.95508 10.6719 4.95508 10.5399C4.95508 10.4079 4.98122 10.2772 5.03199 10.1554C5.08275 10.0335 5.15715 9.9229 5.25088 9.82994C5.43824 9.64369 5.69169 9.53914 5.95588 9.53914C6.22006 9.53914 6.47351 9.64369 6.66088 9.82994L8.24088 11.3799L12.3509 7.37994C12.4448 7.28736 12.556 7.21417 12.6782 7.16457C12.8003 7.11497 12.9311 7.08992 13.0629 7.09085C13.1948 7.09177 13.3252 7.11866 13.4467 7.16998C13.5681 7.2213 13.6783 7.29604 13.7709 7.38994C13.8635 7.48383 13.9366 7.59504 13.9862 7.71722C14.0358 7.8394 14.0609 7.97015 14.06 8.10201C14.059 8.23387 14.0321 8.36425 13.9808 8.48572C13.9295 8.60719 13.8548 8.71736 13.7609 8.80994L8.95088 13.5399C8.75021 13.7078 8.49172 13.7904 8.23088 13.7699Z" fill="#EDEBEA"/>
</svg>
