<svg width="328" height="190" viewBox="0 0 328 190" fill="none" xmlns="http://www.w3.org/2000/svg">
<rect x="0.5" y="42.5" width="327" height="147" rx="11.5" fill="url(#paint0_linear_219_18527)"/>
<rect x="0.5" y="42.5" width="327" height="147" rx="11.5" stroke="url(#paint1_linear_219_18527)"/>
<path d="M51.1811 106H48.5447L52.5618 94.3636H55.7322L59.7436 106H57.1072L54.1925 97.0227H54.1016L51.1811 106ZM51.0163 101.426H57.2436V103.347H51.0163V101.426ZM63.9084 106.142C63.2455 106.142 62.6451 105.972 62.1072 105.631C61.5732 105.286 61.1489 104.78 60.8345 104.114C60.5239 103.443 60.3686 102.621 60.3686 101.648C60.3686 100.648 60.5296 99.8163 60.8516 99.1534C61.1735 98.4867 61.6016 97.9886 62.1357 97.6591C62.6735 97.3258 63.2625 97.1591 63.9027 97.1591C64.3913 97.1591 64.7985 97.2424 65.1243 97.4091C65.4538 97.572 65.719 97.7765 65.9197 98.0227C66.1243 98.2652 66.2796 98.5038 66.3857 98.7386H66.4595V94.3636H68.8743V106H66.4879V104.602H66.3857C66.272 104.845 66.111 105.085 65.9027 105.324C65.6982 105.559 65.4311 105.754 65.1016 105.909C64.7758 106.064 64.3781 106.142 63.9084 106.142ZM64.6754 104.216C65.0656 104.216 65.3951 104.11 65.6641 103.898C65.9368 103.682 66.1451 103.381 66.2891 102.994C66.4368 102.608 66.5107 102.155 66.5107 101.636C66.5107 101.117 66.4387 100.667 66.2947 100.284C66.1508 99.9015 65.9425 99.6061 65.6697 99.3977C65.397 99.1894 65.0656 99.0852 64.6754 99.0852C64.2777 99.0852 63.9425 99.1932 63.6697 99.4091C63.397 99.625 63.1906 99.9242 63.0504 100.307C62.9103 100.689 62.8402 101.133 62.8402 101.636C62.8402 102.144 62.9103 102.593 63.0504 102.983C63.1944 103.369 63.4008 103.672 63.6697 103.892C63.9425 104.108 64.2777 104.216 64.6754 104.216ZM74.0803 106.142C73.4174 106.142 72.817 105.972 72.2791 105.631C71.745 105.286 71.3208 104.78 71.0064 104.114C70.6958 103.443 70.5405 102.621 70.5405 101.648C70.5405 100.648 70.7015 99.8163 71.0234 99.1534C71.3454 98.4867 71.7734 97.9886 72.3075 97.6591C72.8454 97.3258 73.4344 97.1591 74.0746 97.1591C74.5632 97.1591 74.9704 97.2424 75.2962 97.4091C75.6257 97.572 75.8909 97.7765 76.0916 98.0227C76.2962 98.2652 76.4515 98.5038 76.5575 98.7386H76.6314V94.3636H79.0462V106H76.6598V104.602H76.5575C76.4439 104.845 76.2829 105.085 76.0746 105.324C75.87 105.559 75.603 105.754 75.2734 105.909C74.9477 106.064 74.55 106.142 74.0803 106.142ZM74.8473 104.216C75.2375 104.216 75.567 104.11 75.8359 103.898C76.1087 103.682 76.317 103.381 76.4609 102.994C76.6087 102.608 76.6825 102.155 76.6825 101.636C76.6825 101.117 76.6106 100.667 76.4666 100.284C76.3227 99.9015 76.1143 99.6061 75.8416 99.3977C75.5689 99.1894 75.2375 99.0852 74.8473 99.0852C74.4496 99.0852 74.1143 99.1932 73.8416 99.4091C73.5689 99.625 73.3625 99.9242 73.2223 100.307C73.0821 100.689 73.0121 101.133 73.0121 101.636C73.0121 102.144 73.0821 102.593 73.2223 102.983C73.3662 103.369 73.5727 103.672 73.8416 103.892C74.1143 104.108 74.4496 104.216 74.8473 104.216ZM94.5178 94.3636V106H92.3928L87.3303 98.6761H87.245V106H84.7848V94.3636H86.9439L91.9666 101.682H92.0689V94.3636H94.5178ZM100.448 106.17C99.5656 106.17 98.8023 105.983 98.1584 105.608C97.5182 105.229 97.0239 104.703 96.6754 104.028C96.3269 103.35 96.1527 102.564 96.1527 101.67C96.1527 100.769 96.3269 99.9811 96.6754 99.3068C97.0239 98.6288 97.5182 98.1023 98.1584 97.7273C98.8023 97.3485 99.5656 97.1591 100.448 97.1591C101.331 97.1591 102.092 97.3485 102.732 97.7273C103.376 98.1023 103.872 98.6288 104.221 99.3068C104.569 99.9811 104.744 100.769 104.744 101.67C104.744 102.564 104.569 103.35 104.221 104.028C103.872 104.703 103.376 105.229 102.732 105.608C102.092 105.983 101.331 106.17 100.448 106.17ZM100.46 104.295C100.861 104.295 101.196 104.182 101.465 103.955C101.734 103.723 101.937 103.409 102.073 103.011C102.213 102.614 102.283 102.161 102.283 101.653C102.283 101.146 102.213 100.693 102.073 100.295C101.937 99.8977 101.734 99.5833 101.465 99.3523C101.196 99.1212 100.861 99.0057 100.46 99.0057C100.054 99.0057 99.7133 99.1212 99.4368 99.3523C99.1641 99.5833 98.9576 99.8977 98.8175 100.295C98.6811 100.693 98.6129 101.146 98.6129 101.653C98.6129 102.161 98.6811 102.614 98.8175 103.011C98.9576 103.409 99.1641 103.723 99.4368 103.955C99.7133 104.182 100.054 104.295 100.46 104.295ZM106.317 106V97.2727H108.624V98.8125H108.727C108.908 98.3011 109.211 97.8977 109.636 97.6023C110.06 97.3068 110.567 97.1591 111.158 97.1591C111.757 97.1591 112.266 97.3087 112.687 97.608C113.107 97.9034 113.388 98.3049 113.528 98.8125H113.619C113.797 98.3125 114.119 97.9129 114.585 97.6136C115.054 97.3106 115.609 97.1591 116.249 97.1591C117.064 97.1591 117.725 97.4186 118.232 97.9375C118.744 98.4527 118.999 99.1837 118.999 100.131V106H116.585V100.608C116.585 100.123 116.456 99.7595 116.198 99.517C115.941 99.2746 115.619 99.1534 115.232 99.1534C114.793 99.1534 114.45 99.2936 114.204 99.5739C113.958 99.8504 113.835 100.216 113.835 100.67V106H111.488V100.557C111.488 100.129 111.365 99.7879 111.119 99.5341C110.876 99.2803 110.556 99.1534 110.158 99.1534C109.889 99.1534 109.647 99.2216 109.431 99.358C109.219 99.4905 109.05 99.678 108.925 99.9205C108.8 100.159 108.738 100.439 108.738 100.761V106H106.317ZM120.911 106V97.2727H123.332V106H120.911ZM122.127 96.1477C121.767 96.1477 121.459 96.0284 121.201 95.7898C120.947 95.5473 120.82 95.2576 120.82 94.9205C120.82 94.5871 120.947 94.3011 121.201 94.0625C121.459 93.8201 121.767 93.6989 122.127 93.6989C122.487 93.6989 122.794 93.8201 123.048 94.0625C123.305 94.3011 123.434 94.5871 123.434 94.9205C123.434 95.2576 123.305 95.5473 123.048 95.7898C122.794 96.0284 122.487 96.1477 122.127 96.1477ZM127.691 100.955V106H125.271V97.2727H127.577V98.8125H127.68C127.873 98.3049 128.197 97.9034 128.651 97.608C129.106 97.3087 129.657 97.1591 130.305 97.1591C130.911 97.1591 131.439 97.2917 131.89 97.5568C132.341 97.822 132.691 98.2008 132.941 98.6932C133.191 99.1818 133.316 99.7652 133.316 100.443V106H130.896V100.875C130.899 100.341 130.763 99.9242 130.487 99.625C130.21 99.322 129.829 99.1705 129.344 99.1705C129.019 99.1705 128.731 99.2405 128.481 99.3807C128.235 99.5208 128.041 99.7254 127.901 99.9943C127.765 100.259 127.695 100.58 127.691 100.955ZM139.201 106.17C138.303 106.17 137.531 105.989 136.883 105.625C136.239 105.258 135.743 104.739 135.394 104.068C135.046 103.394 134.871 102.597 134.871 101.676C134.871 100.778 135.046 99.9905 135.394 99.3125C135.743 98.6345 136.233 98.1061 136.866 97.7273C137.502 97.3485 138.248 97.1591 139.104 97.1591C139.68 97.1591 140.216 97.2519 140.712 97.4375C141.212 97.6193 141.648 97.8939 142.019 98.2614C142.394 98.6288 142.686 99.0909 142.894 99.6477C143.103 100.201 143.207 100.848 143.207 101.591V102.256H135.837V100.756H140.928C140.928 100.407 140.853 100.098 140.701 99.8295C140.549 99.5606 140.339 99.3504 140.07 99.1989C139.805 99.0436 139.496 98.9659 139.144 98.9659C138.777 98.9659 138.451 99.0511 138.167 99.2216C137.887 99.3883 137.667 99.6136 137.508 99.8977C137.349 100.178 137.267 100.491 137.263 100.835V102.261C137.263 102.693 137.343 103.066 137.502 103.381C137.665 103.695 137.894 103.938 138.19 104.108C138.485 104.278 138.835 104.364 139.241 104.364C139.51 104.364 139.756 104.326 139.979 104.25C140.203 104.174 140.394 104.061 140.553 103.909C140.712 103.758 140.834 103.572 140.917 103.352L143.156 103.5C143.042 104.038 142.809 104.508 142.457 104.909C142.108 105.307 141.657 105.617 141.104 105.841C140.555 106.061 139.921 106.17 139.201 106.17ZM148.763 106.17C147.866 106.17 147.093 105.989 146.445 105.625C145.801 105.258 145.305 104.739 144.957 104.068C144.608 103.394 144.434 102.597 144.434 101.676C144.434 100.778 144.608 99.9905 144.957 99.3125C145.305 98.6345 145.796 98.1061 146.428 97.7273C147.065 97.3485 147.811 97.1591 148.667 97.1591C149.243 97.1591 149.779 97.2519 150.275 97.4375C150.775 97.6193 151.21 97.8939 151.582 98.2614C151.957 98.6288 152.248 99.0909 152.457 99.6477C152.665 100.201 152.769 100.848 152.769 101.591V102.256H145.4V100.756H150.491C150.491 100.407 150.415 100.098 150.263 99.8295C150.112 99.5606 149.902 99.3504 149.633 99.1989C149.368 99.0436 149.059 98.9659 148.707 98.9659C148.339 98.9659 148.013 99.0511 147.729 99.2216C147.449 99.3883 147.229 99.6136 147.07 99.8977C146.911 100.178 146.83 100.491 146.826 100.835V102.261C146.826 102.693 146.906 103.066 147.065 103.381C147.228 103.695 147.457 103.938 147.752 104.108C148.048 104.278 148.398 104.364 148.803 104.364C149.072 104.364 149.318 104.326 149.542 104.25C149.765 104.174 149.957 104.061 150.116 103.909C150.275 103.758 150.396 103.572 150.479 103.352L152.718 103.5C152.604 104.038 152.371 104.508 152.019 104.909C151.671 105.307 151.22 105.617 150.667 105.841C150.118 106.061 149.483 106.17 148.763 106.17ZM162.694 97.2727V99.0909H157.438V97.2727H162.694ZM158.631 95.1818H161.052V103.318C161.052 103.542 161.086 103.716 161.154 103.841C161.222 103.962 161.317 104.047 161.438 104.097C161.563 104.146 161.707 104.17 161.87 104.17C161.984 104.17 162.097 104.161 162.211 104.142C162.325 104.119 162.412 104.102 162.472 104.091L162.853 105.892C162.732 105.93 162.561 105.973 162.342 106.023C162.122 106.076 161.855 106.108 161.54 106.119C160.957 106.142 160.446 106.064 160.006 105.886C159.571 105.708 159.232 105.432 158.989 105.057C158.747 104.682 158.628 104.208 158.631 103.636V95.1818ZM168.12 106.17C167.237 106.17 166.474 105.983 165.83 105.608C165.19 105.229 164.696 104.703 164.347 104.028C163.999 103.35 163.825 102.564 163.825 101.67C163.825 100.769 163.999 99.9811 164.347 99.3068C164.696 98.6288 165.19 98.1023 165.83 97.7273C166.474 97.3485 167.237 97.1591 168.12 97.1591C169.003 97.1591 169.764 97.3485 170.404 97.7273C171.048 98.1023 171.544 98.6288 171.893 99.3068C172.241 99.9811 172.415 100.769 172.415 101.67C172.415 102.564 172.241 103.35 171.893 104.028C171.544 104.703 171.048 105.229 170.404 105.608C169.764 105.983 169.003 106.17 168.12 106.17ZM168.131 104.295C168.533 104.295 168.868 104.182 169.137 103.955C169.406 103.723 169.609 103.409 169.745 103.011C169.885 102.614 169.955 102.161 169.955 101.653C169.955 101.146 169.885 100.693 169.745 100.295C169.609 99.8977 169.406 99.5833 169.137 99.3523C168.868 99.1212 168.533 99.0057 168.131 99.0057C167.726 99.0057 167.385 99.1212 167.109 99.3523C166.836 99.5833 166.629 99.8977 166.489 100.295C166.353 100.693 166.285 101.146 166.285 101.653C166.285 102.161 166.353 102.614 166.489 103.011C166.629 103.409 166.836 103.723 167.109 103.955C167.385 104.182 167.726 104.295 168.131 104.295ZM179.187 109.273C178.88 109.273 178.592 109.248 178.323 109.199C178.058 109.153 177.838 109.095 177.664 109.023L178.21 107.216C178.494 107.303 178.749 107.35 178.977 107.358C179.208 107.366 179.406 107.313 179.573 107.199C179.744 107.085 179.882 106.892 179.988 106.619L180.13 106.25L176.999 97.2727H179.545L181.352 103.682H181.442L183.266 97.2727H185.829L182.437 106.943C182.274 107.413 182.052 107.822 181.772 108.17C181.496 108.523 181.145 108.794 180.721 108.983C180.297 109.176 179.785 109.273 179.187 109.273ZM190.729 106.17C189.847 106.17 189.084 105.983 188.44 105.608C187.799 105.229 187.305 104.703 186.957 104.028C186.608 103.35 186.434 102.564 186.434 101.67C186.434 100.769 186.608 99.9811 186.957 99.3068C187.305 98.6288 187.799 98.1023 188.44 97.7273C189.084 97.3485 189.847 97.1591 190.729 97.1591C191.612 97.1591 192.373 97.3485 193.013 97.7273C193.657 98.1023 194.154 98.6288 194.502 99.3068C194.851 99.9811 195.025 100.769 195.025 101.67C195.025 102.564 194.851 103.35 194.502 104.028C194.154 104.703 193.657 105.229 193.013 105.608C192.373 105.983 191.612 106.17 190.729 106.17ZM190.741 104.295C191.142 104.295 191.478 104.182 191.746 103.955C192.015 103.723 192.218 103.409 192.354 103.011C192.495 102.614 192.565 102.161 192.565 101.653C192.565 101.146 192.495 100.693 192.354 100.295C192.218 99.8977 192.015 99.5833 191.746 99.3523C191.478 99.1212 191.142 99.0057 190.741 99.0057C190.335 99.0057 189.995 99.1212 189.718 99.3523C189.445 99.5833 189.239 99.8977 189.099 100.295C188.962 100.693 188.894 101.146 188.894 101.653C188.894 102.161 188.962 102.614 189.099 103.011C189.239 103.409 189.445 103.723 189.718 103.955C189.995 104.182 190.335 104.295 190.741 104.295ZM202.195 102.284V97.2727H204.616V106H202.292V104.415H202.201C202.004 104.926 201.676 105.337 201.218 105.648C200.763 105.958 200.209 106.114 199.553 106.114C198.97 106.114 198.457 105.981 198.013 105.716C197.57 105.451 197.224 105.074 196.974 104.585C196.728 104.097 196.603 103.511 196.599 102.83V97.2727H199.019V102.398C199.023 102.913 199.161 103.32 199.434 103.619C199.707 103.919 200.072 104.068 200.531 104.068C200.822 104.068 201.095 104.002 201.349 103.869C201.603 103.733 201.807 103.532 201.962 103.267C202.121 103.002 202.199 102.674 202.195 102.284ZM206.552 106V97.2727H208.898V98.7955H208.989C209.148 98.2538 209.415 97.8447 209.79 97.5682C210.165 97.2879 210.597 97.1477 211.086 97.1477C211.207 97.1477 211.338 97.1553 211.478 97.1705C211.618 97.1856 211.741 97.2064 211.847 97.233V99.3807C211.734 99.3466 211.576 99.3163 211.376 99.2898C211.175 99.2633 210.991 99.25 210.825 99.25C210.469 99.25 210.15 99.3277 209.87 99.483C209.594 99.6345 209.374 99.8466 209.211 100.119C209.052 100.392 208.972 100.706 208.972 101.062V106H206.552ZM219.29 106.165C218.734 106.165 218.237 106.068 217.802 105.875C217.366 105.678 217.022 105.388 216.768 105.006C216.518 104.619 216.393 104.138 216.393 103.562C216.393 103.078 216.482 102.67 216.66 102.341C216.838 102.011 217.08 101.746 217.387 101.545C217.694 101.345 218.042 101.193 218.433 101.091C218.826 100.989 219.239 100.917 219.671 100.875C220.179 100.822 220.588 100.773 220.898 100.727C221.209 100.678 221.434 100.606 221.575 100.511C221.715 100.417 221.785 100.277 221.785 100.091V100.057C221.785 99.697 221.671 99.4186 221.444 99.2216C221.22 99.0246 220.902 98.9261 220.489 98.9261C220.054 98.9261 219.707 99.0227 219.45 99.2159C219.192 99.4053 219.022 99.6439 218.938 99.9318L216.7 99.75C216.813 99.2197 217.037 98.7614 217.37 98.375C217.703 97.9848 218.133 97.6856 218.66 97.4773C219.19 97.2652 219.804 97.1591 220.501 97.1591C220.986 97.1591 221.45 97.2159 221.893 97.3295C222.34 97.4432 222.736 97.6193 223.08 97.858C223.429 98.0966 223.703 98.4034 223.904 98.7784C224.105 99.1496 224.205 99.5947 224.205 100.114V106H221.91V104.79H221.842C221.701 105.062 221.514 105.303 221.279 105.511C221.044 105.716 220.762 105.877 220.433 105.994C220.103 106.108 219.722 106.165 219.29 106.165ZM219.984 104.494C220.34 104.494 220.654 104.424 220.927 104.284C221.2 104.14 221.414 103.947 221.569 103.705C221.724 103.462 221.802 103.187 221.802 102.881V101.955C221.726 102.004 221.622 102.049 221.489 102.091C221.361 102.129 221.215 102.165 221.052 102.199C220.889 102.229 220.726 102.258 220.563 102.284C220.4 102.307 220.253 102.328 220.12 102.347C219.836 102.388 219.588 102.455 219.376 102.545C219.164 102.636 218.999 102.759 218.881 102.915C218.764 103.066 218.705 103.256 218.705 103.483C218.705 103.812 218.825 104.064 219.063 104.239C219.306 104.409 219.612 104.494 219.984 104.494ZM230.026 106.17C229.132 106.17 228.363 105.981 227.719 105.602C227.079 105.22 226.587 104.689 226.242 104.011C225.901 103.333 225.731 102.553 225.731 101.67C225.731 100.777 225.903 99.9924 226.248 99.3182C226.596 98.6402 227.091 98.1117 227.731 97.733C228.371 97.3504 229.132 97.1591 230.015 97.1591C230.776 97.1591 231.443 97.2973 232.015 97.5739C232.587 97.8504 233.04 98.2386 233.373 98.7386C233.706 99.2386 233.89 99.8258 233.924 100.5H231.64C231.576 100.064 231.405 99.714 231.129 99.4489C230.856 99.1799 230.498 99.0455 230.055 99.0455C229.68 99.0455 229.352 99.1477 229.072 99.3523C228.795 99.553 228.579 99.8466 228.424 100.233C228.269 100.619 228.191 101.087 228.191 101.636C228.191 102.193 228.267 102.667 228.418 103.057C228.574 103.447 228.791 103.744 229.072 103.949C229.352 104.153 229.68 104.256 230.055 104.256C230.331 104.256 230.579 104.199 230.799 104.085C231.022 103.972 231.206 103.807 231.35 103.591C231.498 103.371 231.594 103.108 231.64 102.801H233.924C233.886 103.468 233.704 104.055 233.379 104.562C233.057 105.066 232.612 105.46 232.043 105.744C231.475 106.028 230.803 106.17 230.026 106.17ZM239.417 106.17C238.523 106.17 237.754 105.981 237.11 105.602C236.47 105.22 235.978 104.689 235.633 104.011C235.292 103.333 235.121 102.553 235.121 101.67C235.121 100.777 235.294 99.9924 235.638 99.3182C235.987 98.6402 236.481 98.1117 237.121 97.733C237.762 97.3504 238.523 97.1591 239.406 97.1591C240.167 97.1591 240.834 97.2973 241.406 97.5739C241.978 97.8504 242.43 98.2386 242.763 98.7386C243.097 99.2386 243.281 99.8258 243.315 100.5H241.031C240.966 100.064 240.796 99.714 240.519 99.4489C240.246 99.1799 239.888 99.0455 239.445 99.0455C239.07 99.0455 238.743 99.1477 238.462 99.3523C238.186 99.553 237.97 99.8466 237.815 100.233C237.659 100.619 237.582 101.087 237.582 101.636C237.582 102.193 237.657 102.667 237.809 103.057C237.964 103.447 238.182 103.744 238.462 103.949C238.743 104.153 239.07 104.256 239.445 104.256C239.722 104.256 239.97 104.199 240.19 104.085C240.413 103.972 240.597 103.807 240.741 103.591C240.888 103.371 240.985 103.108 241.031 102.801H243.315C243.277 103.468 243.095 104.055 242.769 104.562C242.447 105.066 242.002 105.46 241.434 105.744C240.866 106.028 240.193 106.17 239.417 106.17ZM248.808 106.17C247.925 106.17 247.162 105.983 246.518 105.608C245.878 105.229 245.383 104.703 245.035 104.028C244.686 103.35 244.512 102.564 244.512 101.67C244.512 100.769 244.686 99.9811 245.035 99.3068C245.383 98.6288 245.878 98.1023 246.518 97.7273C247.162 97.3485 247.925 97.1591 248.808 97.1591C249.69 97.1591 250.451 97.3485 251.092 97.7273C251.736 98.1023 252.232 98.6288 252.58 99.3068C252.929 99.9811 253.103 100.769 253.103 101.67C253.103 102.564 252.929 103.35 252.58 104.028C252.232 104.703 251.736 105.229 251.092 105.608C250.451 105.983 249.69 106.17 248.808 106.17ZM248.819 104.295C249.22 104.295 249.556 104.182 249.825 103.955C250.094 103.723 250.296 103.409 250.433 103.011C250.573 102.614 250.643 102.161 250.643 101.653C250.643 101.146 250.573 100.693 250.433 100.295C250.296 99.8977 250.094 99.5833 249.825 99.3523C249.556 99.1212 249.22 99.0057 248.819 99.0057C248.414 99.0057 248.073 99.1212 247.796 99.3523C247.523 99.5833 247.317 99.8977 247.177 100.295C247.04 100.693 246.972 101.146 246.972 101.653C246.972 102.161 247.04 102.614 247.177 103.011C247.317 103.409 247.523 103.723 247.796 103.955C248.073 104.182 248.414 104.295 248.819 104.295ZM260.273 102.284V97.2727H262.694V106H260.37V104.415H260.279C260.082 104.926 259.754 105.337 259.296 105.648C258.842 105.958 258.287 106.114 257.631 106.114C257.048 106.114 256.535 105.981 256.092 105.716C255.648 105.451 255.302 105.074 255.052 104.585C254.806 104.097 254.681 103.511 254.677 102.83V97.2727H257.097V102.398C257.101 102.913 257.239 103.32 257.512 103.619C257.785 103.919 258.15 104.068 258.609 104.068C258.9 104.068 259.173 104.002 259.427 103.869C259.681 103.733 259.885 103.532 260.04 103.267C260.2 103.002 260.277 102.674 260.273 102.284ZM267.05 100.955V106H264.63V97.2727H266.937V98.8125H267.039C267.232 98.3049 267.556 97.9034 268.011 97.608C268.465 97.3087 269.016 97.1591 269.664 97.1591C270.27 97.1591 270.799 97.2917 271.249 97.5568C271.7 97.822 272.05 98.2008 272.3 98.6932C272.55 99.1818 272.675 99.7652 272.675 100.443V106H270.255V100.875C270.259 100.341 270.122 99.9242 269.846 99.625C269.569 99.322 269.189 99.1705 268.704 99.1705C268.378 99.1705 268.09 99.2405 267.84 99.3807C267.594 99.5208 267.401 99.7254 267.261 99.9943C267.124 100.259 267.054 100.58 267.05 100.955ZM279.225 97.2727V99.0909H273.969V97.2727H279.225ZM275.163 95.1818H277.583V103.318C277.583 103.542 277.617 103.716 277.685 103.841C277.754 103.962 277.848 104.047 277.969 104.097C278.094 104.146 278.238 104.17 278.401 104.17C278.515 104.17 278.629 104.161 278.742 104.142C278.856 104.119 278.943 104.102 279.004 104.091L279.384 105.892C279.263 105.93 279.093 105.973 278.873 106.023C278.653 106.076 278.386 106.108 278.072 106.119C277.488 106.142 276.977 106.064 276.538 105.886C276.102 105.708 275.763 105.432 275.521 105.057C275.278 104.682 275.159 104.208 275.163 103.636V95.1818Z" fill="#202020"/>
<path d="M50.0517 123.273V132H48.8414L44.4054 125.599H44.3244V132H43.0076V123.273H44.2264L48.6667 129.682H48.7477V123.273H50.0517ZM54.6273 132.132C54.0137 132.132 53.4782 131.991 53.0208 131.71C52.5634 131.429 52.2083 131.036 51.9554 130.53C51.7026 130.024 51.5762 129.433 51.5762 128.757C51.5762 128.078 51.7026 127.484 51.9554 126.976C52.2083 126.467 52.5634 126.072 53.0208 125.791C53.4782 125.51 54.0137 125.369 54.6273 125.369C55.2409 125.369 55.7765 125.51 56.2338 125.791C56.6912 126.072 57.0463 126.467 57.2992 126.976C57.552 127.484 57.6784 128.078 57.6784 128.757C57.6784 129.433 57.552 130.024 57.2992 130.53C57.0463 131.036 56.6912 131.429 56.2338 131.71C55.7765 131.991 55.2409 132.132 54.6273 132.132ZM54.6316 131.062C55.0293 131.062 55.3588 130.957 55.6202 130.747C55.8816 130.537 56.0748 130.257 56.1998 129.908C56.3276 129.558 56.3915 129.173 56.3915 128.753C56.3915 128.335 56.3276 127.952 56.1998 127.602C56.0748 127.25 55.8816 126.967 55.6202 126.754C55.3588 126.541 55.0293 126.435 54.6316 126.435C54.231 126.435 53.8986 126.541 53.6344 126.754C53.373 126.967 53.1784 127.25 53.0506 127.602C52.9256 127.952 52.8631 128.335 52.8631 128.753C52.8631 129.173 52.9256 129.558 53.0506 129.908C53.1784 130.257 53.373 130.537 53.6344 130.747C53.8986 130.957 54.231 131.062 54.6316 131.062ZM59.1007 132V125.455H60.3237V126.52H60.4047C60.541 126.159 60.764 125.878 61.0737 125.676C61.3833 125.472 61.7541 125.369 62.1859 125.369C62.6234 125.369 62.9899 125.472 63.2853 125.676C63.5836 125.881 63.8038 126.162 63.9458 126.52H64.014C64.1703 126.17 64.4189 125.892 64.7598 125.685C65.1007 125.474 65.5069 125.369 65.9785 125.369C66.5723 125.369 67.0566 125.555 67.4316 125.928C67.8095 126.3 67.9984 126.861 67.9984 127.611V132H66.7243V127.73C66.7243 127.287 66.6035 126.966 66.362 126.767C66.1206 126.568 65.8322 126.469 65.497 126.469C65.0822 126.469 64.7598 126.597 64.5297 126.852C64.2995 127.105 64.1845 127.43 64.1845 127.828V132H62.9146V127.649C62.9146 127.294 62.8038 127.009 62.5822 126.793C62.3606 126.577 62.0723 126.469 61.7172 126.469C61.4757 126.469 61.2527 126.533 61.0481 126.661C60.8464 126.786 60.6831 126.96 60.5581 127.185C60.4359 127.409 60.3748 127.669 60.3748 127.964V132H59.1007ZM69.7061 132V125.455H70.9803V132H69.7061ZM70.3496 124.445C70.128 124.445 69.9377 124.371 69.7786 124.223C69.6223 124.072 69.5442 123.893 69.5442 123.686C69.5442 123.476 69.6223 123.297 69.7786 123.149C69.9377 122.999 70.128 122.923 70.3496 122.923C70.5712 122.923 70.7601 122.999 70.9164 123.149C71.0755 123.297 71.155 123.476 71.155 123.686C71.155 123.893 71.0755 124.072 70.9164 124.223C70.7601 124.371 70.5712 124.445 70.3496 124.445ZM73.9686 128.114V132H72.6944V125.455H73.9174V126.52H73.9984C74.149 126.173 74.3848 125.895 74.7058 125.685C75.0297 125.474 75.4373 125.369 75.9288 125.369C76.3748 125.369 76.7654 125.463 77.1007 125.651C77.4359 125.835 77.6958 126.111 77.8805 126.477C78.0652 126.844 78.1575 127.297 78.1575 127.837V132H76.8833V127.99C76.8833 127.516 76.7598 127.145 76.5126 126.878C76.2654 126.608 75.926 126.473 75.4941 126.473C75.1987 126.473 74.9359 126.537 74.7058 126.665C74.4785 126.793 74.2981 126.98 74.1646 127.227C74.0339 127.472 73.9686 127.767 73.9686 128.114ZM82.6873 132.132C82.0424 132.132 81.487 131.994 81.0211 131.719C80.5581 131.44 80.2001 131.05 79.9473 130.547C79.6973 130.041 79.5723 129.449 79.5723 128.77C79.5723 128.099 79.6973 127.509 79.9473 126.997C80.2001 126.486 80.5524 126.087 81.0041 125.8C81.4586 125.513 81.9899 125.369 82.5978 125.369C82.9672 125.369 83.3251 125.43 83.6717 125.553C84.0183 125.675 84.3294 125.866 84.6049 126.128C84.8805 126.389 85.0978 126.729 85.2569 127.146C85.416 127.561 85.4956 128.065 85.4956 128.659V129.111H80.2924V128.156H84.247C84.247 127.821 84.1788 127.524 84.0424 127.266C83.9061 127.004 83.7143 126.798 83.4672 126.648C83.2228 126.497 82.9359 126.422 82.6064 126.422C82.2484 126.422 81.9359 126.51 81.6689 126.686C81.4047 126.859 81.2001 127.087 81.0552 127.368C80.9132 127.646 80.8422 127.949 80.8422 128.276V129.021C80.8422 129.459 80.9189 129.831 81.0723 130.138C81.2285 130.445 81.4458 130.679 81.7243 130.841C82.0027 131 82.3279 131.08 82.7001 131.08C82.9416 131.08 83.1618 131.045 83.3606 130.977C83.5595 130.906 83.7314 130.801 83.8762 130.662C84.0211 130.523 84.1319 130.351 84.2086 130.146L85.4146 130.364C85.318 130.719 85.1447 131.03 84.8947 131.297C84.6475 131.561 84.3365 131.767 83.9615 131.915C83.5893 132.06 83.1646 132.132 82.6873 132.132ZM89.7303 132.132C89.0854 132.132 88.53 131.994 88.0641 131.719C87.601 131.44 87.2431 131.05 86.9902 130.547C86.7402 130.041 86.6152 129.449 86.6152 128.77C86.6152 128.099 86.7402 127.509 86.9902 126.997C87.2431 126.486 87.5953 126.087 88.0471 125.8C88.5016 125.513 89.0328 125.369 89.6408 125.369C90.0101 125.369 90.3681 125.43 90.7147 125.553C91.0613 125.675 91.3723 125.866 91.6479 126.128C91.9235 126.389 92.1408 126.729 92.2999 127.146C92.459 127.561 92.5385 128.065 92.5385 128.659V129.111H87.3354V128.156H91.29C91.29 127.821 91.2218 127.524 91.0854 127.266C90.949 127.004 90.7573 126.798 90.5101 126.648C90.2658 126.497 89.9789 126.422 89.6493 126.422C89.2914 126.422 88.9789 126.51 88.7118 126.686C88.4476 126.859 88.2431 127.087 88.0982 127.368C87.9561 127.646 87.8851 127.949 87.8851 128.276V129.021C87.8851 129.459 87.9618 129.831 88.1152 130.138C88.2715 130.445 88.4888 130.679 88.7672 130.841C89.0456 131 89.3709 131.08 89.7431 131.08C89.9846 131.08 90.2047 131.045 90.4036 130.977C90.6025 130.906 90.7743 130.801 90.9192 130.662C91.0641 130.523 91.1749 130.351 91.2516 130.146L92.4576 130.364C92.361 130.719 92.1877 131.03 91.9377 131.297C91.6905 131.561 91.3794 131.767 91.0044 131.915C90.6323 132.06 90.2076 132.132 89.7303 132.132ZM99.5783 132.128C99.0499 132.128 98.5783 131.993 98.1635 131.723C97.7516 131.45 97.4277 131.062 97.1919 130.56C96.959 130.054 96.8425 129.447 96.8425 128.74C96.8425 128.033 96.9604 127.428 97.1962 126.925C97.4348 126.422 97.7615 126.037 98.1763 125.77C98.5911 125.503 99.0613 125.369 99.5868 125.369C99.9931 125.369 100.32 125.438 100.567 125.574C100.817 125.707 101.01 125.864 101.146 126.043C101.286 126.222 101.394 126.379 101.47 126.516H101.547V123.273H102.821V132H101.577V130.982H101.47C101.394 131.121 101.283 131.28 101.138 131.459C100.996 131.638 100.8 131.794 100.55 131.928C100.3 132.061 99.976 132.128 99.5783 132.128ZM99.8596 131.041C100.226 131.041 100.536 130.945 100.789 130.751C101.044 130.555 101.237 130.284 101.368 129.938C101.502 129.591 101.568 129.187 101.568 128.727C101.568 128.273 101.503 127.875 101.372 127.534C101.242 127.193 101.05 126.928 100.797 126.737C100.544 126.547 100.232 126.452 99.8596 126.452C99.476 126.452 99.1564 126.551 98.9007 126.75C98.6451 126.949 98.4519 127.22 98.3212 127.564C98.1934 127.908 98.1294 128.295 98.1294 128.727C98.1294 129.165 98.1948 129.558 98.3255 129.908C98.4561 130.257 98.6493 130.534 98.905 130.739C99.1635 130.94 99.4817 131.041 99.8596 131.041ZM107.461 132.132C106.816 132.132 106.26 131.994 105.795 131.719C105.331 131.44 104.974 131.05 104.721 130.547C104.471 130.041 104.346 129.449 104.346 128.77C104.346 128.099 104.471 127.509 104.721 126.997C104.974 126.486 105.326 126.087 105.778 125.8C106.232 125.513 106.763 125.369 107.371 125.369C107.741 125.369 108.099 125.43 108.445 125.553C108.792 125.675 109.103 125.866 109.378 126.128C109.654 126.389 109.871 126.729 110.03 127.146C110.189 127.561 110.269 128.065 110.269 128.659V129.111H105.066V128.156H109.02C109.02 127.821 108.952 127.524 108.816 127.266C108.68 127.004 108.488 126.798 108.241 126.648C107.996 126.497 107.709 126.422 107.38 126.422C107.022 126.422 106.709 126.51 106.442 126.686C106.178 126.859 105.974 127.087 105.829 127.368C105.687 127.646 105.616 127.949 105.616 128.276V129.021C105.616 129.459 105.692 129.831 105.846 130.138C106.002 130.445 106.219 130.679 106.498 130.841C106.776 131 107.101 131.08 107.474 131.08C107.715 131.08 107.935 131.045 108.134 130.977C108.333 130.906 108.505 130.801 108.65 130.662C108.795 130.523 108.905 130.351 108.982 130.146L110.188 130.364C110.091 130.719 109.918 131.03 109.668 131.297C109.421 131.561 109.11 131.767 108.735 131.915C108.363 132.06 107.938 132.132 107.461 132.132ZM114.738 125.455V126.477H111.163V125.455H114.738ZM112.122 123.886H113.396V130.078C113.396 130.325 113.433 130.511 113.507 130.636C113.58 130.759 113.676 130.842 113.792 130.888C113.911 130.93 114.041 130.952 114.18 130.952C114.282 130.952 114.372 130.945 114.448 130.93C114.525 130.916 114.585 130.905 114.627 130.896L114.857 131.949C114.784 131.977 114.678 132.006 114.542 132.034C114.406 132.065 114.235 132.082 114.031 132.085C113.695 132.091 113.383 132.031 113.093 131.906C112.803 131.781 112.569 131.588 112.39 131.327C112.211 131.065 112.122 130.737 112.122 130.342V123.886ZM118.052 132.145C117.638 132.145 117.263 132.068 116.927 131.915C116.592 131.759 116.327 131.533 116.131 131.237C115.937 130.942 115.841 130.58 115.841 130.151C115.841 129.781 115.912 129.477 116.054 129.239C116.196 129 116.388 128.811 116.629 128.672C116.871 128.533 117.14 128.428 117.439 128.357C117.737 128.286 118.041 128.232 118.351 128.195C118.743 128.149 119.061 128.112 119.305 128.084C119.55 128.053 119.727 128.003 119.838 127.935C119.949 127.866 120.004 127.756 120.004 127.602V127.572C120.004 127.2 119.899 126.912 119.689 126.707C119.481 126.503 119.172 126.401 118.76 126.401C118.331 126.401 117.993 126.496 117.746 126.686C117.501 126.874 117.332 127.082 117.238 127.312L116.041 127.04C116.183 126.642 116.39 126.321 116.663 126.077C116.939 125.83 117.256 125.651 117.613 125.54C117.971 125.426 118.348 125.369 118.743 125.369C119.004 125.369 119.281 125.401 119.574 125.463C119.869 125.523 120.145 125.634 120.4 125.795C120.659 125.957 120.871 126.189 121.035 126.49C121.2 126.788 121.282 127.176 121.282 127.653V132H120.038V131.105H119.987C119.905 131.27 119.781 131.432 119.616 131.591C119.452 131.75 119.24 131.882 118.981 131.987C118.723 132.092 118.413 132.145 118.052 132.145ZM118.329 131.122C118.682 131.122 118.983 131.053 119.233 130.913C119.486 130.774 119.677 130.592 119.808 130.368C119.942 130.141 120.008 129.898 120.008 129.639V128.795C119.963 128.841 119.875 128.884 119.744 128.923C119.616 128.96 119.47 128.993 119.305 129.021C119.14 129.047 118.98 129.071 118.824 129.094C118.667 129.114 118.537 129.131 118.432 129.145C118.184 129.176 117.959 129.229 117.754 129.303C117.552 129.376 117.39 129.483 117.268 129.622C117.149 129.759 117.089 129.94 117.089 130.168C117.089 130.483 117.206 130.722 117.439 130.884C117.672 131.043 117.969 131.122 118.329 131.122ZM122.98 132V125.455H124.254V132H122.98ZM123.623 124.445C123.401 124.445 123.211 124.371 123.052 124.223C122.896 124.072 122.818 123.893 122.818 123.686C122.818 123.476 122.896 123.297 123.052 123.149C123.211 122.999 123.401 122.923 123.623 122.923C123.845 122.923 124.034 122.999 124.19 123.149C124.349 123.297 124.428 123.476 124.428 123.686C124.428 123.893 124.349 124.072 124.19 124.223C124.034 124.371 123.845 124.445 123.623 124.445ZM127.242 123.273V132H125.968V123.273H127.242ZM133.861 127.053L132.706 127.257C132.658 127.109 132.581 126.969 132.476 126.835C132.374 126.702 132.235 126.592 132.058 126.507C131.882 126.422 131.662 126.379 131.398 126.379C131.037 126.379 130.736 126.46 130.494 126.622C130.253 126.781 130.132 126.987 130.132 127.24C130.132 127.459 130.213 127.635 130.375 127.768C130.537 127.902 130.798 128.011 131.159 128.097L132.199 128.335C132.801 128.474 133.25 128.689 133.546 128.979C133.841 129.268 133.989 129.645 133.989 130.108C133.989 130.5 133.875 130.849 133.648 131.156C133.423 131.46 133.11 131.699 132.706 131.872C132.306 132.045 131.841 132.132 131.313 132.132C130.58 132.132 129.982 131.976 129.519 131.663C129.056 131.348 128.771 130.901 128.666 130.321L129.898 130.134C129.975 130.455 130.132 130.697 130.371 130.862C130.61 131.024 130.921 131.105 131.304 131.105C131.722 131.105 132.056 131.018 132.306 130.845C132.556 130.669 132.681 130.455 132.681 130.202C132.681 129.997 132.604 129.825 132.45 129.686C132.3 129.547 132.068 129.442 131.756 129.371L130.648 129.128C130.037 128.989 129.585 128.767 129.293 128.463C129.003 128.159 128.858 127.774 128.858 127.308C128.858 126.922 128.966 126.584 129.182 126.294C129.398 126.004 129.696 125.778 130.077 125.616C130.458 125.452 130.894 125.369 131.385 125.369C132.093 125.369 132.649 125.523 133.056 125.83C133.462 126.134 133.73 126.541 133.861 127.053ZM139.985 132L138.058 125.455H139.375L140.658 130.261H140.722L142.009 125.455H143.325L144.604 130.24H144.668L145.942 125.455H147.259L145.337 132H144.037L142.708 127.274H142.61L141.28 132H139.985ZM148.468 132V125.455H149.742V132H148.468ZM149.111 124.445C148.89 124.445 148.699 124.371 148.54 124.223C148.384 124.072 148.306 123.893 148.306 123.686C148.306 123.476 148.384 123.297 148.54 123.149C148.699 122.999 148.89 122.923 149.111 122.923C149.333 122.923 149.522 122.999 149.678 123.149C149.837 123.297 149.917 123.476 149.917 123.686C149.917 123.893 149.837 124.072 149.678 124.223C149.522 124.371 149.333 124.445 149.111 124.445ZM152.73 123.273V132H151.456V123.273H152.73ZM155.719 123.273V132H154.444V123.273H155.719ZM160.711 132V123.273H161.985V126.516H162.062C162.135 126.379 162.242 126.222 162.381 126.043C162.52 125.864 162.714 125.707 162.961 125.574C163.208 125.438 163.535 125.369 163.941 125.369C164.469 125.369 164.941 125.503 165.356 125.77C165.77 126.037 166.096 126.422 166.331 126.925C166.57 127.428 166.689 128.033 166.689 128.74C166.689 129.447 166.572 130.054 166.336 130.56C166.1 131.062 165.776 131.45 165.364 131.723C164.952 131.993 164.482 132.128 163.954 132.128C163.556 132.128 163.231 132.061 162.978 131.928C162.728 131.794 162.532 131.638 162.39 131.459C162.248 131.28 162.138 131.121 162.062 130.982H161.955V132H160.711ZM161.959 128.727C161.959 129.187 162.026 129.591 162.16 129.938C162.293 130.284 162.486 130.555 162.739 130.751C162.992 130.945 163.302 131.041 163.668 131.041C164.049 131.041 164.367 130.94 164.623 130.739C164.878 130.534 165.072 130.257 165.202 129.908C165.336 129.558 165.403 129.165 165.403 128.727C165.403 128.295 165.337 127.908 165.206 127.564C165.079 127.22 164.885 126.949 164.627 126.75C164.371 126.551 164.052 126.452 163.668 126.452C163.299 126.452 162.986 126.547 162.731 126.737C162.478 126.928 162.286 127.193 162.155 127.534C162.025 127.875 161.959 128.273 161.959 128.727ZM170.941 132.132C170.296 132.132 169.741 131.994 169.275 131.719C168.812 131.44 168.454 131.05 168.201 130.547C167.951 130.041 167.826 129.449 167.826 128.77C167.826 128.099 167.951 127.509 168.201 126.997C168.454 126.486 168.806 126.087 169.258 125.8C169.713 125.513 170.244 125.369 170.852 125.369C171.221 125.369 171.579 125.43 171.926 125.553C172.272 125.675 172.583 125.866 172.859 126.128C173.134 126.389 173.352 126.729 173.511 127.146C173.67 127.561 173.749 128.065 173.749 128.659V129.111H168.546V128.156H172.501C172.501 127.821 172.433 127.524 172.296 127.266C172.16 127.004 171.968 126.798 171.721 126.648C171.477 126.497 171.19 126.422 170.86 126.422C170.502 126.422 170.19 126.51 169.923 126.686C169.659 126.859 169.454 127.087 169.309 127.368C169.167 127.646 169.096 127.949 169.096 128.276V129.021C169.096 129.459 169.173 129.831 169.326 130.138C169.482 130.445 169.7 130.679 169.978 130.841C170.257 131 170.582 131.08 170.954 131.08C171.195 131.08 171.416 131.045 171.615 130.977C171.813 130.906 171.985 130.801 172.13 130.662C172.275 130.523 172.386 130.351 172.463 130.146L173.669 130.364C173.572 130.719 173.399 131.03 173.149 131.297C172.901 131.561 172.59 131.767 172.215 131.915C171.843 132.06 171.419 132.132 170.941 132.132ZM182.485 129.286V125.455H183.764V132H182.511V130.866H182.443C182.292 131.216 182.051 131.507 181.718 131.74C181.389 131.97 180.978 132.085 180.487 132.085C180.066 132.085 179.694 131.993 179.37 131.808C179.049 131.621 178.796 131.344 178.612 130.977C178.43 130.611 178.339 130.158 178.339 129.618V125.455H179.613V129.464C179.613 129.911 179.737 130.266 179.984 130.53C180.231 130.794 180.552 130.926 180.947 130.926C181.186 130.926 181.423 130.866 181.659 130.747C181.897 130.628 182.095 130.447 182.251 130.206C182.41 129.964 182.488 129.658 182.485 129.286ZM190.381 127.053L189.226 127.257C189.177 127.109 189.101 126.969 188.996 126.835C188.893 126.702 188.754 126.592 188.578 126.507C188.402 126.422 188.182 126.379 187.917 126.379C187.557 126.379 187.256 126.46 187.014 126.622C186.773 126.781 186.652 126.987 186.652 127.24C186.652 127.459 186.733 127.635 186.895 127.768C187.057 127.902 187.318 128.011 187.679 128.097L188.719 128.335C189.321 128.474 189.77 128.689 190.065 128.979C190.361 129.268 190.508 129.645 190.508 130.108C190.508 130.5 190.395 130.849 190.167 131.156C189.943 131.46 189.629 131.699 189.226 131.872C188.825 132.045 188.361 132.132 187.832 132.132C187.099 132.132 186.501 131.976 186.038 131.663C185.575 131.348 185.291 130.901 185.186 130.321L186.417 130.134C186.494 130.455 186.652 130.697 186.89 130.862C187.129 131.024 187.44 131.105 187.824 131.105C188.241 131.105 188.575 131.018 188.825 130.845C189.075 130.669 189.2 130.455 189.2 130.202C189.2 129.997 189.123 129.825 188.97 129.686C188.819 129.547 188.588 129.442 188.275 129.371L187.167 129.128C186.557 128.989 186.105 128.767 185.812 128.463C185.523 128.159 185.378 127.774 185.378 127.308C185.378 126.922 185.486 126.584 185.702 126.294C185.917 126.004 186.216 125.778 186.596 125.616C186.977 125.452 187.413 125.369 187.905 125.369C188.612 125.369 189.169 125.523 189.575 125.83C189.981 126.134 190.25 126.541 190.381 127.053ZM194.73 132.132C194.085 132.132 193.53 131.994 193.064 131.719C192.601 131.44 192.243 131.05 191.99 130.547C191.74 130.041 191.615 129.449 191.615 128.77C191.615 128.099 191.74 127.509 191.99 126.997C192.243 126.486 192.595 126.087 193.047 125.8C193.502 125.513 194.033 125.369 194.641 125.369C195.01 125.369 195.368 125.43 195.715 125.553C196.061 125.675 196.372 125.866 196.648 126.128C196.923 126.389 197.141 126.729 197.3 127.146C197.459 127.561 197.539 128.065 197.539 128.659V129.111H192.335V128.156H196.29C196.29 127.821 196.222 127.524 196.085 127.266C195.949 127.004 195.757 126.798 195.51 126.648C195.266 126.497 194.979 126.422 194.649 126.422C194.291 126.422 193.979 126.51 193.712 126.686C193.448 126.859 193.243 127.087 193.098 127.368C192.956 127.646 192.885 127.949 192.885 128.276V129.021C192.885 129.459 192.962 129.831 193.115 130.138C193.271 130.445 193.489 130.679 193.767 130.841C194.046 131 194.371 131.08 194.743 131.08C194.985 131.08 195.205 131.045 195.404 130.977C195.602 130.906 195.774 130.801 195.919 130.662C196.064 130.523 196.175 130.351 196.252 130.146L197.458 130.364C197.361 130.719 197.188 131.03 196.938 131.297C196.691 131.561 196.379 131.767 196.004 131.915C195.632 132.06 195.208 132.132 194.73 132.132ZM201.403 132.128C200.874 132.128 200.403 131.993 199.988 131.723C199.576 131.45 199.252 131.062 199.016 130.56C198.783 130.054 198.667 129.447 198.667 128.74C198.667 128.033 198.785 127.428 199.02 126.925C199.259 126.422 199.586 126.037 200.001 125.77C200.415 125.503 200.885 125.369 201.411 125.369C201.817 125.369 202.144 125.438 202.391 125.574C202.641 125.707 202.834 125.864 202.971 126.043C203.11 126.222 203.218 126.379 203.295 126.516H203.371V123.273H204.645V132H203.401V130.982H203.295C203.218 131.121 203.107 131.28 202.962 131.459C202.82 131.638 202.624 131.794 202.374 131.928C202.124 132.061 201.8 132.128 201.403 132.128ZM201.684 131.041C202.05 131.041 202.36 130.945 202.613 130.751C202.868 130.555 203.062 130.284 203.192 129.938C203.326 129.591 203.393 129.187 203.393 128.727C203.393 128.273 203.327 127.875 203.197 127.534C203.066 127.193 202.874 126.928 202.621 126.737C202.368 126.547 202.056 126.452 201.684 126.452C201.3 126.452 200.981 126.551 200.725 126.75C200.469 126.949 200.276 127.22 200.145 127.564C200.018 127.908 199.954 128.295 199.954 128.727C199.954 129.165 200.019 129.558 200.15 129.908C200.28 130.257 200.474 130.534 200.729 130.739C200.988 130.94 201.306 131.041 201.684 131.041ZM212.695 125.455V126.477H209.12V125.455H212.695ZM210.079 123.886H211.353V130.078C211.353 130.325 211.39 130.511 211.464 130.636C211.537 130.759 211.633 130.842 211.749 130.888C211.868 130.93 211.998 130.952 212.137 130.952C212.239 130.952 212.329 130.945 212.405 130.93C212.482 130.916 212.542 130.905 212.584 130.896L212.814 131.949C212.741 131.977 212.635 132.006 212.499 132.034C212.363 132.065 212.192 132.082 211.988 132.085C211.653 132.091 211.34 132.031 211.05 131.906C210.76 131.781 210.526 131.588 210.347 131.327C210.168 131.065 210.079 130.737 210.079 130.342V123.886ZM216.791 132.132C216.178 132.132 215.642 131.991 215.185 131.71C214.727 131.429 214.372 131.036 214.119 130.53C213.867 130.024 213.74 129.433 213.74 128.757C213.74 128.078 213.867 127.484 214.119 126.976C214.372 126.467 214.727 126.072 215.185 125.791C215.642 125.51 216.178 125.369 216.791 125.369C217.405 125.369 217.941 125.51 218.398 125.791C218.855 126.072 219.21 126.467 219.463 126.976C219.716 127.484 219.843 128.078 219.843 128.757C219.843 129.433 219.716 130.024 219.463 130.53C219.21 131.036 218.855 131.429 218.398 131.71C217.941 131.991 217.405 132.132 216.791 132.132ZM216.796 131.062C217.193 131.062 217.523 130.957 217.784 130.747C218.046 130.537 218.239 130.257 218.364 129.908C218.492 129.558 218.556 129.173 218.556 128.753C218.556 128.335 218.492 127.952 218.364 127.602C218.239 127.25 218.046 126.967 217.784 126.754C217.523 126.541 217.193 126.435 216.796 126.435C216.395 126.435 216.063 126.541 215.798 126.754C215.537 126.967 215.343 127.25 215.215 127.602C215.09 127.952 215.027 128.335 215.027 128.753C215.027 129.173 215.09 129.558 215.215 129.908C215.343 130.257 215.537 130.537 215.798 130.747C216.063 130.957 216.395 131.062 216.796 131.062ZM228.587 129.286V125.455H229.865V132H228.612V130.866H228.544C228.394 131.216 228.152 131.507 227.82 131.74C227.49 131.97 227.08 132.085 226.588 132.085C226.168 132.085 225.796 131.993 225.472 131.808C225.151 131.621 224.898 131.344 224.713 130.977C224.531 130.611 224.441 130.158 224.441 129.618V125.455H225.715V129.464C225.715 129.911 225.838 130.266 226.085 130.53C226.333 130.794 226.654 130.926 227.048 130.926C227.287 130.926 227.524 130.866 227.76 130.747C227.999 130.628 228.196 130.447 228.352 130.206C228.512 129.964 228.59 129.658 228.587 129.286ZM231.577 134.455V125.455H232.822V126.516H232.928C233.002 126.379 233.108 126.222 233.248 126.043C233.387 125.864 233.58 125.707 233.827 125.574C234.074 125.438 234.401 125.369 234.807 125.369C235.336 125.369 235.807 125.503 236.222 125.77C236.637 126.037 236.962 126.422 237.198 126.925C237.437 127.428 237.556 128.033 237.556 128.74C237.556 129.447 237.438 130.054 237.202 130.56C236.966 131.062 236.643 131.45 236.231 131.723C235.819 131.993 235.349 132.128 234.82 132.128C234.422 132.128 234.097 132.061 233.844 131.928C233.594 131.794 233.398 131.638 233.256 131.459C233.114 131.28 233.005 131.121 232.928 130.982H232.851V134.455H231.577ZM232.826 128.727C232.826 129.187 232.893 129.591 233.026 129.938C233.16 130.284 233.353 130.555 233.606 130.751C233.858 130.945 234.168 131.041 234.535 131.041C234.915 131.041 235.233 130.94 235.489 130.739C235.745 130.534 235.938 130.257 236.069 129.908C236.202 129.558 236.269 129.165 236.269 128.727C236.269 128.295 236.204 127.908 236.073 127.564C235.945 127.22 235.752 126.949 235.493 126.75C235.238 126.551 234.918 126.452 234.535 126.452C234.165 126.452 233.853 126.547 233.597 126.737C233.344 126.928 233.153 127.193 233.022 127.534C232.891 127.875 232.826 128.273 232.826 128.727ZM241.434 132.128C240.905 132.128 240.434 131.993 240.019 131.723C239.607 131.45 239.283 131.062 239.047 130.56C238.814 130.054 238.698 129.447 238.698 128.74C238.698 128.033 238.816 127.428 239.052 126.925C239.29 126.422 239.617 126.037 240.032 125.77C240.447 125.503 240.917 125.369 241.442 125.369C241.849 125.369 242.175 125.438 242.422 125.574C242.672 125.707 242.866 125.864 243.002 126.043C243.141 126.222 243.249 126.379 243.326 126.516H243.403V123.273H244.677V132H243.432V130.982H243.326C243.249 131.121 243.138 131.28 242.993 131.459C242.851 131.638 242.655 131.794 242.405 131.928C242.155 132.061 241.831 132.128 241.434 132.128ZM241.715 131.041C242.081 131.041 242.391 130.945 242.644 130.751C242.9 130.555 243.093 130.284 243.224 129.938C243.357 129.591 243.424 129.187 243.424 128.727C243.424 128.273 243.358 127.875 243.228 127.534C243.097 127.193 242.905 126.928 242.653 126.737C242.4 126.547 242.087 126.452 241.715 126.452C241.331 126.452 241.012 126.551 240.756 126.75C240.501 126.949 240.307 127.22 240.177 127.564C240.049 127.908 239.985 128.295 239.985 128.727C239.985 129.165 240.05 129.558 240.181 129.908C240.312 130.257 240.505 130.534 240.76 130.739C241.019 130.94 241.337 131.041 241.715 131.041ZM248.4 132.145C247.985 132.145 247.61 132.068 247.275 131.915C246.94 131.759 246.674 131.533 246.478 131.237C246.285 130.942 246.188 130.58 246.188 130.151C246.188 129.781 246.259 129.477 246.401 129.239C246.544 129 246.735 128.811 246.977 128.672C247.218 128.533 247.488 128.428 247.786 128.357C248.085 128.286 248.389 128.232 248.698 128.195C249.09 128.149 249.409 128.112 249.653 128.084C249.897 128.053 250.075 128.003 250.186 127.935C250.296 127.866 250.352 127.756 250.352 127.602V127.572C250.352 127.2 250.247 126.912 250.036 126.707C249.829 126.503 249.519 126.401 249.107 126.401C248.678 126.401 248.34 126.496 248.093 126.686C247.849 126.874 247.68 127.082 247.586 127.312L246.389 127.04C246.531 126.642 246.738 126.321 247.011 126.077C247.286 125.83 247.603 125.651 247.961 125.54C248.319 125.426 248.695 125.369 249.09 125.369C249.352 125.369 249.629 125.401 249.921 125.463C250.217 125.523 250.492 125.634 250.748 125.795C251.007 125.957 251.218 126.189 251.383 126.49C251.548 126.788 251.63 127.176 251.63 127.653V132H250.386V131.105H250.335C250.252 131.27 250.129 131.432 249.964 131.591C249.799 131.75 249.588 131.882 249.329 131.987C249.07 132.092 248.761 132.145 248.4 132.145ZM248.677 131.122C249.029 131.122 249.33 131.053 249.58 130.913C249.833 130.774 250.025 130.592 250.156 130.368C250.289 130.141 250.356 129.898 250.356 129.639V128.795C250.311 128.841 250.222 128.884 250.092 128.923C249.964 128.96 249.818 128.993 249.653 129.021C249.488 129.047 249.328 129.071 249.171 129.094C249.015 129.114 248.884 129.131 248.779 129.145C248.532 129.176 248.306 129.229 248.102 129.303C247.9 129.376 247.738 129.483 247.616 129.622C247.497 129.759 247.437 129.94 247.437 130.168C247.437 130.483 247.553 130.722 247.786 130.884C248.019 131.043 248.316 131.122 248.677 131.122ZM256.383 125.455V126.477H252.807V125.455H256.383ZM253.766 123.886H255.04V130.078C255.04 130.325 255.077 130.511 255.151 130.636C255.225 130.759 255.32 130.842 255.437 130.888C255.556 130.93 255.685 130.952 255.824 130.952C255.927 130.952 256.016 130.945 256.093 130.93C256.17 130.916 256.229 130.905 256.272 130.896L256.502 131.949C256.428 131.977 256.323 132.006 256.187 132.034C256.05 132.065 255.88 132.082 255.675 132.085C255.34 132.091 255.028 132.031 254.738 131.906C254.448 131.781 254.214 131.588 254.035 131.327C253.856 131.065 253.766 130.737 253.766 130.342V123.886ZM260.543 132.132C259.898 132.132 259.343 131.994 258.877 131.719C258.414 131.44 258.056 131.05 257.803 130.547C257.553 130.041 257.428 129.449 257.428 128.77C257.428 128.099 257.553 127.509 257.803 126.997C258.056 126.486 258.408 126.087 258.86 125.8C259.314 125.513 259.845 125.369 260.453 125.369C260.823 125.369 261.181 125.43 261.527 125.553C261.874 125.675 262.185 125.866 262.46 126.128C262.736 126.389 262.953 126.729 263.112 127.146C263.271 127.561 263.351 128.065 263.351 128.659V129.111H258.148V128.156H262.102C262.102 127.821 262.034 127.524 261.898 127.266C261.762 127.004 261.57 126.798 261.323 126.648C261.078 126.497 260.791 126.422 260.462 126.422C260.104 126.422 259.791 126.51 259.524 126.686C259.26 126.859 259.056 127.087 258.911 127.368C258.769 127.646 258.698 127.949 258.698 128.276V129.021C258.698 129.459 258.774 129.831 258.928 130.138C259.084 130.445 259.301 130.679 259.58 130.841C259.858 131 260.183 131.08 260.556 131.08C260.797 131.08 261.017 131.045 261.216 130.977C261.415 130.906 261.587 130.801 261.732 130.662C261.877 130.523 261.987 130.351 262.064 130.146L263.27 130.364C263.173 130.719 263 131.03 262.75 131.297C262.503 131.561 262.192 131.767 261.817 131.915C261.445 132.06 261.02 132.132 260.543 132.132ZM270.996 125.455V126.477H267.421V125.455H270.996ZM268.379 123.886H269.654V130.078C269.654 130.325 269.691 130.511 269.764 130.636C269.838 130.759 269.933 130.842 270.05 130.888C270.169 130.93 270.298 130.952 270.438 130.952C270.54 130.952 270.629 130.945 270.706 130.93C270.783 130.916 270.843 130.905 270.885 130.896L271.115 131.949C271.041 131.977 270.936 132.006 270.8 132.034C270.664 132.065 270.493 132.082 270.289 132.085C269.953 132.091 269.641 132.031 269.351 131.906C269.061 131.781 268.827 131.588 268.648 131.327C268.469 131.065 268.379 130.737 268.379 130.342V123.886ZM273.82 128.114V132H272.546V123.273H273.803V126.52H273.884C274.037 126.168 274.272 125.888 274.587 125.68C274.903 125.473 275.314 125.369 275.823 125.369C276.272 125.369 276.664 125.462 276.999 125.646C277.337 125.831 277.599 126.107 277.783 126.473C277.971 126.837 278.064 127.291 278.064 127.837V132H276.79V127.99C276.79 127.51 276.667 127.138 276.42 126.874C276.172 126.607 275.829 126.473 275.388 126.473C275.087 126.473 274.817 126.537 274.579 126.665C274.343 126.793 274.157 126.98 274.02 127.227C273.887 127.472 273.82 127.767 273.82 128.114ZM282.586 132.132C281.941 132.132 281.385 131.994 280.92 131.719C280.456 131.44 280.099 131.05 279.846 130.547C279.596 130.041 279.471 129.449 279.471 128.77C279.471 128.099 279.596 127.509 279.846 126.997C280.099 126.486 280.451 126.087 280.903 125.8C281.357 125.513 281.888 125.369 282.496 125.369C282.866 125.369 283.224 125.43 283.57 125.553C283.917 125.675 284.228 125.866 284.503 126.128C284.779 126.389 284.996 126.729 285.155 127.146C285.314 127.561 285.394 128.065 285.394 128.659V129.111H280.191V128.156H284.145C284.145 127.821 284.077 127.524 283.941 127.266C283.805 127.004 283.613 126.798 283.366 126.648C283.121 126.497 282.834 126.422 282.505 126.422C282.147 126.422 281.834 126.51 281.567 126.686C281.303 126.859 281.099 127.087 280.954 127.368C280.812 127.646 280.741 127.949 280.741 128.276V129.021C280.741 129.459 280.817 129.831 280.971 130.138C281.127 130.445 281.344 130.679 281.623 130.841C281.901 131 282.226 131.08 282.599 131.08C282.84 131.08 283.06 131.045 283.259 130.977C283.458 130.906 283.63 130.801 283.775 130.662C283.92 130.523 284.03 130.351 284.107 130.146L285.313 130.364C285.216 130.719 285.043 131.03 284.793 131.297C284.546 131.561 284.235 131.767 283.86 131.915C283.488 132.06 283.063 132.132 282.586 132.132ZM38.9178 148.114V152H37.6436V145.455H38.8667V146.52H38.9476C39.0982 146.173 39.334 145.895 39.655 145.685C39.9789 145.474 40.3865 145.369 40.878 145.369C41.324 145.369 41.7147 145.463 42.0499 145.651C42.3851 145.835 42.6451 146.111 42.8297 146.477C43.0144 146.844 43.1067 147.297 43.1067 147.837V152H41.8326V147.99C41.8326 147.516 41.709 147.145 41.4618 146.878C41.2147 146.608 40.8752 146.473 40.4434 146.473C40.1479 146.473 39.8851 146.537 39.655 146.665C39.4277 146.793 39.2473 146.98 39.1138 147.227C38.9831 147.472 38.9178 147.767 38.9178 148.114ZM47.5726 152.132C46.959 152.132 46.4235 151.991 45.9661 151.71C45.5087 151.429 45.1536 151.036 44.9007 150.53C44.6479 150.024 44.5215 149.433 44.5215 148.757C44.5215 148.078 44.6479 147.484 44.9007 146.976C45.1536 146.467 45.5087 146.072 45.9661 145.791C46.4235 145.51 46.959 145.369 47.5726 145.369C48.1863 145.369 48.7218 145.51 49.1792 145.791C49.6365 146.072 49.9917 146.467 50.2445 146.976C50.4973 147.484 50.6238 148.078 50.6238 148.757C50.6238 149.433 50.4973 150.024 50.2445 150.53C49.9917 151.036 49.6365 151.429 49.1792 151.71C48.7218 151.991 48.1863 152.132 47.5726 152.132ZM47.5769 151.062C47.9746 151.062 48.3042 150.957 48.5655 150.747C48.8269 150.537 49.0201 150.257 49.1451 149.908C49.2729 149.558 49.3368 149.173 49.3368 148.753C49.3368 148.335 49.2729 147.952 49.1451 147.602C49.0201 147.25 48.8269 146.967 48.5655 146.754C48.3042 146.541 47.9746 146.435 47.5769 146.435C47.1763 146.435 46.8439 146.541 46.5797 146.754C46.3184 146.967 46.1238 147.25 45.9959 147.602C45.8709 147.952 45.8084 148.335 45.8084 148.753C45.8084 149.173 45.8709 149.558 45.9959 149.908C46.1238 150.257 46.3184 150.537 46.5797 150.747C46.8439 150.957 47.1763 151.062 47.5769 151.062ZM52.046 152V145.455H53.269V146.52H53.35C53.4863 146.159 53.7093 145.878 54.019 145.676C54.3287 145.472 54.6994 145.369 55.1312 145.369C55.5687 145.369 55.9352 145.472 56.2306 145.676C56.5289 145.881 56.7491 146.162 56.8912 146.52H56.9593C57.1156 146.17 57.3642 145.892 57.7051 145.685C58.046 145.474 58.4522 145.369 58.9238 145.369C59.5176 145.369 60.002 145.555 60.377 145.928C60.7548 146.3 60.9437 146.861 60.9437 147.611V152H59.6696V147.73C59.6696 147.287 59.5488 146.966 59.3074 146.767C59.0659 146.568 58.7775 146.469 58.4423 146.469C58.0275 146.469 57.7051 146.597 57.475 146.852C57.2449 147.105 57.1298 147.43 57.1298 147.828V152H55.8599V147.649C55.8599 147.294 55.7491 147.009 55.5275 146.793C55.3059 146.577 55.0176 146.469 54.6625 146.469C54.421 146.469 54.198 146.533 53.9934 146.661C53.7917 146.786 53.6284 146.96 53.5034 147.185C53.3812 147.409 53.3201 147.669 53.3201 147.964V152H52.046ZM62.6515 152V145.455H63.9256V152H62.6515ZM63.2949 144.445C63.0733 144.445 62.883 144.371 62.7239 144.223C62.5676 144.072 62.4895 143.893 62.4895 143.686C62.4895 143.476 62.5676 143.297 62.7239 143.149C62.883 142.999 63.0733 142.923 63.2949 142.923C63.5165 142.923 63.7054 142.999 63.8617 143.149C64.0208 143.297 64.1003 143.476 64.1003 143.686C64.1003 143.893 64.0208 144.072 63.8617 144.223C63.7054 144.371 63.5165 144.445 63.2949 144.445ZM66.9139 148.114V152H65.6397V145.455H66.8627V146.52H66.9437C67.0943 146.173 67.3301 145.895 67.6511 145.685C67.975 145.474 68.3826 145.369 68.8741 145.369C69.3201 145.369 69.7108 145.463 70.046 145.651C70.3812 145.835 70.6412 146.111 70.8258 146.477C71.0105 146.844 71.1028 147.297 71.1028 147.837V152H69.8287V147.99C69.8287 147.516 69.7051 147.145 69.4579 146.878C69.2108 146.608 68.8713 146.473 68.4395 146.473C68.144 146.473 67.8812 146.537 67.6511 146.665C67.4238 146.793 67.2434 146.98 67.1099 147.227C66.9792 147.472 66.9139 147.767 66.9139 148.114ZM74.7164 152.145C74.3017 152.145 73.9267 152.068 73.5914 151.915C73.2562 151.759 72.9906 151.533 72.7946 151.237C72.6014 150.942 72.5048 150.58 72.5048 150.151C72.5048 149.781 72.5758 149.477 72.7179 149.239C72.8599 149 73.0517 148.811 73.2931 148.672C73.5346 148.533 73.8045 148.428 74.1028 148.357C74.4011 148.286 74.7051 148.232 75.0147 148.195C75.4068 148.149 75.725 148.112 75.9693 148.084C76.2136 148.053 76.3912 148.003 76.502 147.935C76.6127 147.866 76.6681 147.756 76.6681 147.602V147.572C76.6681 147.2 76.563 146.912 76.3528 146.707C76.1454 146.503 75.8358 146.401 75.4238 146.401C74.9949 146.401 74.6568 146.496 74.4096 146.686C74.1653 146.874 73.9963 147.082 73.9025 147.312L72.7051 147.04C72.8471 146.642 73.0545 146.321 73.3272 146.077C73.6028 145.83 73.9196 145.651 74.2775 145.54C74.6355 145.426 75.0119 145.369 75.4068 145.369C75.6681 145.369 75.9451 145.401 76.2377 145.463C76.5332 145.523 76.8088 145.634 77.0645 145.795C77.323 145.957 77.5346 146.189 77.6994 146.49C77.8642 146.788 77.9466 147.176 77.9466 147.653V152H76.7022V151.105H76.6511C76.5687 151.27 76.4451 151.432 76.2804 151.591C76.1156 151.75 75.9039 151.882 75.6454 151.987C75.3869 152.092 75.0772 152.145 74.7164 152.145ZM74.9934 151.122C75.3457 151.122 75.6468 151.053 75.8968 150.913C76.1497 150.774 76.3414 150.592 76.4721 150.368C76.6056 150.141 76.6724 149.898 76.6724 149.639V148.795C76.627 148.841 76.5389 148.884 76.4082 148.923C76.2804 148.96 76.1341 148.993 75.9693 149.021C75.8045 149.047 75.644 149.071 75.4877 149.094C75.3315 149.114 75.2008 149.131 75.0957 149.145C74.8485 149.176 74.6227 149.229 74.4181 149.303C74.2164 149.376 74.0545 149.483 73.9324 149.622C73.813 149.759 73.7534 149.94 73.7534 150.168C73.7534 150.483 73.8699 150.722 74.1028 150.884C74.3358 151.043 74.6326 151.122 74.9934 151.122ZM82.699 145.455V146.477H79.1238V145.455H82.699ZM80.0826 143.886H81.3567V150.078C81.3567 150.325 81.3936 150.511 81.4675 150.636C81.5414 150.759 81.6365 150.842 81.753 150.888C81.8723 150.93 82.0016 150.952 82.1408 150.952C82.2431 150.952 82.3326 150.945 82.4093 150.93C82.486 150.916 82.5456 150.905 82.5882 150.896L82.8184 151.949C82.7445 151.977 82.6394 152.006 82.503 152.034C82.3667 152.065 82.1962 152.082 81.9917 152.085C81.6564 152.091 81.3439 152.031 81.0542 151.906C80.7644 151.781 80.53 151.588 80.351 151.327C80.1721 151.065 80.0826 150.737 80.0826 150.342V143.886ZM84.1085 152V145.455H85.3826V152H84.1085ZM84.752 144.445C84.5304 144.445 84.34 144.371 84.1809 144.223C84.0247 144.072 83.9466 143.893 83.9466 143.686C83.9466 143.476 84.0247 143.297 84.1809 143.149C84.34 142.999 84.5304 142.923 84.752 142.923C84.9735 142.923 85.1625 142.999 85.3187 143.149C85.4778 143.297 85.5574 143.476 85.5574 143.686C85.5574 143.893 85.4778 144.072 85.3187 144.223C85.1625 144.371 84.9735 144.445 84.752 144.445ZM89.8539 152.132C89.2402 152.132 88.7047 151.991 88.2473 151.71C87.79 151.429 87.4348 151.036 87.182 150.53C86.9292 150.024 86.8027 149.433 86.8027 148.757C86.8027 148.078 86.9292 147.484 87.182 146.976C87.4348 146.467 87.79 146.072 88.2473 145.791C88.7047 145.51 89.2402 145.369 89.8539 145.369C90.4675 145.369 91.003 145.51 91.4604 145.791C91.9178 146.072 92.2729 146.467 92.5257 146.976C92.7786 147.484 92.905 148.078 92.905 148.757C92.905 149.433 92.7786 150.024 92.5257 150.53C92.2729 151.036 91.9178 151.429 91.4604 151.71C91.003 151.991 90.4675 152.132 89.8539 152.132ZM89.8581 151.062C90.2559 151.062 90.5854 150.957 90.8468 150.747C91.1081 150.537 91.3013 150.257 91.4263 149.908C91.5542 149.558 91.6181 149.173 91.6181 148.753C91.6181 148.335 91.5542 147.952 91.4263 147.602C91.3013 147.25 91.1081 146.967 90.8468 146.754C90.5854 146.541 90.2559 146.435 89.8581 146.435C89.4576 146.435 89.1252 146.541 88.861 146.754C88.5996 146.967 88.405 147.25 88.2772 147.602C88.1522 147.952 88.0897 148.335 88.0897 148.753C88.0897 149.173 88.1522 149.558 88.2772 149.908C88.405 150.257 88.5996 150.537 88.861 150.747C89.1252 150.957 89.4576 151.062 89.8581 151.062ZM95.6014 148.114V152H94.3272V145.455H95.5502V146.52H95.6312C95.7818 146.173 96.0176 145.895 96.3386 145.685C96.6625 145.474 97.0701 145.369 97.5616 145.369C98.0076 145.369 98.3983 145.463 98.7335 145.651C99.0687 145.835 99.3287 146.111 99.5133 146.477C99.698 146.844 99.7903 147.297 99.7903 147.837V152H98.5162V147.99C98.5162 147.516 98.3926 147.145 98.1454 146.878C97.8983 146.608 97.5588 146.473 97.127 146.473C96.8315 146.473 96.5687 146.537 96.3386 146.665C96.1113 146.793 95.9309 146.98 95.7974 147.227C95.6667 147.472 95.6014 147.767 95.6014 148.114ZM109.58 147.053L108.425 147.257C108.377 147.109 108.3 146.969 108.195 146.835C108.093 146.702 107.953 146.592 107.777 146.507C107.601 146.422 107.381 146.379 107.117 146.379C106.756 146.379 106.455 146.46 106.213 146.622C105.972 146.781 105.851 146.987 105.851 147.24C105.851 147.459 105.932 147.635 106.094 147.768C106.256 147.902 106.517 148.011 106.878 148.097L107.918 148.335C108.52 148.474 108.969 148.689 109.264 148.979C109.56 149.268 109.708 149.645 109.708 150.108C109.708 150.5 109.594 150.849 109.367 151.156C109.142 151.46 108.828 151.699 108.425 151.872C108.024 152.045 107.56 152.132 107.031 152.132C106.298 152.132 105.7 151.976 105.237 151.663C104.774 151.348 104.49 150.901 104.385 150.321L105.617 150.134C105.693 150.455 105.851 150.697 106.09 150.862C106.328 151.024 106.639 151.105 107.023 151.105C107.441 151.105 107.774 151.018 108.024 150.845C108.274 150.669 108.399 150.455 108.399 150.202C108.399 149.997 108.323 149.825 108.169 149.686C108.019 149.547 107.787 149.442 107.475 149.371L106.367 149.128C105.756 148.989 105.304 148.767 105.012 148.463C104.722 148.159 104.577 147.774 104.577 147.308C104.577 146.922 104.685 146.584 104.901 146.294C105.117 146.004 105.415 145.778 105.796 145.616C106.176 145.452 106.612 145.369 107.104 145.369C107.811 145.369 108.368 145.523 108.774 145.83C109.181 146.134 109.449 146.541 109.58 147.053ZM114.164 145.455V146.477H110.589V145.455H114.164ZM111.547 143.886H112.822V150.078C112.822 150.325 112.858 150.511 112.932 150.636C113.006 150.759 113.101 150.842 113.218 150.888C113.337 150.93 113.466 150.952 113.606 150.952C113.708 150.952 113.797 150.945 113.874 150.93C113.951 150.916 114.01 150.905 114.053 150.896L114.283 151.949C114.209 151.977 114.104 152.006 113.968 152.034C113.831 152.065 113.661 152.082 113.456 152.085C113.121 152.091 112.809 152.031 112.519 151.906C112.229 151.781 111.995 151.588 111.816 151.327C111.637 151.065 111.547 150.737 111.547 150.342V143.886ZM117.478 152.145C117.063 152.145 116.688 152.068 116.353 151.915C116.018 151.759 115.752 151.533 115.556 151.237C115.363 150.942 115.267 150.58 115.267 150.151C115.267 149.781 115.338 149.477 115.48 149.239C115.622 149 115.813 148.811 116.055 148.672C116.296 148.533 116.566 148.428 116.865 148.357C117.163 148.286 117.467 148.232 117.776 148.195C118.169 148.149 118.487 148.112 118.731 148.084C118.975 148.053 119.153 148.003 119.264 147.935C119.374 147.866 119.43 147.756 119.43 147.602V147.572C119.43 147.2 119.325 146.912 119.115 146.707C118.907 146.503 118.597 146.401 118.186 146.401C117.757 146.401 117.419 146.496 117.171 146.686C116.927 146.874 116.758 147.082 116.664 147.312L115.467 147.04C115.609 146.642 115.816 146.321 116.089 146.077C116.365 145.83 116.681 145.651 117.039 145.54C117.397 145.426 117.774 145.369 118.169 145.369C118.43 145.369 118.707 145.401 118.999 145.463C119.295 145.523 119.57 145.634 119.826 145.795C120.085 145.957 120.296 146.189 120.461 146.49C120.626 146.788 120.708 147.176 120.708 147.653V152H119.464V151.105H119.413C119.33 151.27 119.207 151.432 119.042 151.591C118.877 151.75 118.666 151.882 118.407 151.987C118.149 152.092 117.839 152.145 117.478 152.145ZM117.755 151.122C118.107 151.122 118.409 151.053 118.659 150.913C118.911 150.774 119.103 150.592 119.234 150.368C119.367 150.141 119.434 149.898 119.434 149.639V148.795C119.389 148.841 119.301 148.884 119.17 148.923C119.042 148.96 118.896 148.993 118.731 149.021C118.566 149.047 118.406 149.071 118.249 149.094C118.093 149.114 117.963 149.131 117.857 149.145C117.61 149.176 117.384 149.229 117.18 149.303C116.978 149.376 116.816 149.483 116.694 149.622C116.575 149.759 116.515 149.94 116.515 150.168C116.515 150.483 116.632 150.722 116.865 150.884C117.097 151.043 117.394 151.122 117.755 151.122ZM125.461 145.455V146.477H121.885V145.455H125.461ZM122.844 143.886H124.118V150.078C124.118 150.325 124.155 150.511 124.229 150.636C124.303 150.759 124.398 150.842 124.515 150.888C124.634 150.93 124.763 150.952 124.903 150.952C125.005 150.952 125.094 150.945 125.171 150.93C125.248 150.916 125.307 150.905 125.35 150.896L125.58 151.949C125.506 151.977 125.401 152.006 125.265 152.034C125.128 152.065 124.958 152.082 124.753 152.085C124.418 152.091 124.106 152.031 123.816 151.906C123.526 151.781 123.292 151.588 123.113 151.327C122.934 151.065 122.844 150.737 122.844 150.342V143.886ZM131.017 149.286V145.455H132.295V152H131.042V150.866H130.974C130.823 151.216 130.582 151.507 130.249 151.74C129.92 151.97 129.509 152.085 129.018 152.085C128.597 152.085 128.225 151.993 127.901 151.808C127.58 151.621 127.328 151.344 127.143 150.977C126.961 150.611 126.87 150.158 126.87 149.618V145.455H128.144V149.464C128.144 149.911 128.268 150.266 128.515 150.53C128.762 150.794 129.083 150.926 129.478 150.926C129.717 150.926 129.954 150.866 130.19 150.747C130.428 150.628 130.626 150.447 130.782 150.206C130.941 149.964 131.019 149.658 131.017 149.286ZM138.912 147.053L137.757 147.257C137.709 147.109 137.632 146.969 137.527 146.835C137.425 146.702 137.285 146.592 137.109 146.507C136.933 146.422 136.713 146.379 136.449 146.379C136.088 146.379 135.787 146.46 135.545 146.622C135.304 146.781 135.183 146.987 135.183 147.24C135.183 147.459 135.264 147.635 135.426 147.768C135.588 147.902 135.849 148.011 136.21 148.097L137.25 148.335C137.852 148.474 138.301 148.689 138.596 148.979C138.892 149.268 139.04 149.645 139.04 150.108C139.04 150.5 138.926 150.849 138.699 151.156C138.474 151.46 138.16 151.699 137.757 151.872C137.356 152.045 136.892 152.132 136.363 152.132C135.631 152.132 135.032 151.976 134.569 151.663C134.106 151.348 133.822 150.901 133.717 150.321L134.949 150.134C135.025 150.455 135.183 150.697 135.422 150.862C135.66 151.024 135.971 151.105 136.355 151.105C136.773 151.105 137.106 151.018 137.356 150.845C137.606 150.669 137.731 150.455 137.731 150.202C137.731 149.997 137.655 149.825 137.501 149.686C137.351 149.547 137.119 149.442 136.807 149.371L135.699 149.128C135.088 148.989 134.636 148.767 134.344 148.463C134.054 148.159 133.909 147.774 133.909 147.308C133.909 146.922 134.017 146.584 134.233 146.294C134.449 146.004 134.747 145.778 135.128 145.616C135.508 145.452 135.944 145.369 136.436 145.369C137.143 145.369 137.7 145.523 138.106 145.83C138.513 146.134 138.781 146.541 138.912 147.053ZM143.616 152V145.455H144.89V152H143.616ZM144.26 144.445C144.038 144.445 143.848 144.371 143.689 144.223C143.532 144.072 143.454 143.893 143.454 143.686C143.454 143.476 143.532 143.297 143.689 143.149C143.848 142.999 144.038 142.923 144.26 142.923C144.481 142.923 144.67 142.999 144.827 143.149C144.986 143.297 145.065 143.476 145.065 143.686C145.065 143.893 144.986 144.072 144.827 144.223C144.67 144.371 144.481 144.445 144.26 144.445ZM147.879 148.114V152H146.605V145.455H147.828V146.52H147.909C148.059 146.173 148.295 145.895 148.616 145.685C148.94 145.474 149.347 145.369 149.839 145.369C150.285 145.369 150.676 145.463 151.011 145.651C151.346 145.835 151.606 146.111 151.791 146.477C151.975 146.844 152.068 147.297 152.068 147.837V152H150.794V147.99C150.794 147.516 150.67 147.145 150.423 146.878C150.176 146.608 149.836 146.473 149.404 146.473C149.109 146.473 148.846 146.537 148.616 146.665C148.389 146.793 148.208 146.98 148.075 147.227C147.944 147.472 147.879 147.767 147.879 148.114ZM157.758 154.455C157.567 154.455 157.394 154.439 157.238 154.408C157.081 154.379 156.965 154.348 156.888 154.314L157.195 153.27C157.428 153.332 157.635 153.359 157.817 153.351C157.999 153.342 158.16 153.274 158.299 153.146C158.441 153.018 158.566 152.81 158.674 152.52L158.831 152.085L156.437 145.455H157.8L159.458 150.534H159.526L161.184 145.455H162.552L159.854 152.874C159.729 153.214 159.57 153.503 159.377 153.739C159.184 153.977 158.954 154.156 158.687 154.276C158.42 154.395 158.11 154.455 157.758 154.455ZM166.284 152.132C165.67 152.132 165.134 151.991 164.677 151.71C164.22 151.429 163.865 151.036 163.612 150.53C163.359 150.024 163.232 149.433 163.232 148.757C163.232 148.078 163.359 147.484 163.612 146.976C163.865 146.467 164.22 146.072 164.677 145.791C165.134 145.51 165.67 145.369 166.284 145.369C166.897 145.369 167.433 145.51 167.89 145.791C168.347 146.072 168.703 146.467 168.955 146.976C169.208 147.484 169.335 148.078 169.335 148.757C169.335 149.433 169.208 150.024 168.955 150.53C168.703 151.036 168.347 151.429 167.89 151.71C167.433 151.991 166.897 152.132 166.284 152.132ZM166.288 151.062C166.686 151.062 167.015 150.957 167.276 150.747C167.538 150.537 167.731 150.257 167.856 149.908C167.984 149.558 168.048 149.173 168.048 148.753C168.048 148.335 167.984 147.952 167.856 147.602C167.731 147.25 167.538 146.967 167.276 146.754C167.015 146.541 166.686 146.435 166.288 146.435C165.887 146.435 165.555 146.541 165.291 146.754C165.029 146.967 164.835 147.25 164.707 147.602C164.582 147.952 164.519 148.335 164.519 148.753C164.519 149.173 164.582 149.558 164.707 149.908C164.835 150.257 165.029 150.537 165.291 150.747C165.555 150.957 165.887 151.062 166.288 151.062ZM174.903 149.286V145.455H176.182V152H174.929V150.866H174.861C174.71 151.216 174.469 151.507 174.136 151.74C173.807 151.97 173.396 152.085 172.905 152.085C172.484 152.085 172.112 151.993 171.788 151.808C171.467 151.621 171.214 151.344 171.03 150.977C170.848 150.611 170.757 150.158 170.757 149.618V145.455H172.031V149.464C172.031 149.911 172.155 150.266 172.402 150.53C172.649 150.794 172.97 150.926 173.365 150.926C173.604 150.926 173.841 150.866 174.077 150.747C174.315 150.628 174.513 150.447 174.669 150.206C174.828 149.964 174.906 149.658 174.903 149.286ZM177.894 152V145.455H179.125V146.494H179.193C179.313 146.142 179.523 145.865 179.824 145.663C180.128 145.459 180.472 145.357 180.855 145.357C180.935 145.357 181.029 145.359 181.137 145.365C181.247 145.371 181.334 145.378 181.396 145.386V146.605C181.345 146.591 181.254 146.575 181.124 146.558C180.993 146.538 180.862 146.528 180.732 146.528C180.431 146.528 180.162 146.592 179.926 146.72C179.693 146.845 179.509 147.02 179.372 147.244C179.236 147.466 179.168 147.719 179.168 148.003V152H177.894ZM188.602 152H185.777V143.273H188.692C189.547 143.273 190.281 143.447 190.895 143.797C191.509 144.143 191.979 144.642 192.306 145.293C192.635 145.94 192.8 146.717 192.8 147.624C192.8 148.533 192.634 149.314 192.301 149.967C191.972 150.621 191.494 151.124 190.869 151.476C190.244 151.825 189.489 152 188.602 152ZM187.094 150.849H188.53C189.195 150.849 189.747 150.724 190.188 150.474C190.628 150.222 190.958 149.857 191.176 149.379C191.395 148.899 191.504 148.314 191.504 147.624C191.504 146.939 191.395 146.358 191.176 145.881C190.96 145.403 190.638 145.041 190.209 144.794C189.78 144.547 189.247 144.423 188.611 144.423H187.094V150.849ZM197.156 152.132C196.511 152.132 195.956 151.994 195.49 151.719C195.027 151.44 194.669 151.05 194.416 150.547C194.166 150.041 194.041 149.449 194.041 148.77C194.041 148.099 194.166 147.509 194.416 146.997C194.669 146.486 195.021 146.087 195.473 145.8C195.927 145.513 196.459 145.369 197.067 145.369C197.436 145.369 197.794 145.43 198.14 145.553C198.487 145.675 198.798 145.866 199.074 146.128C199.349 146.389 199.567 146.729 199.726 147.146C199.885 147.561 199.964 148.065 199.964 148.659V149.111H194.761V148.156H198.716C198.716 147.821 198.648 147.524 198.511 147.266C198.375 147.004 198.183 146.798 197.936 146.648C197.692 146.497 197.405 146.422 197.075 146.422C196.717 146.422 196.405 146.51 196.138 146.686C195.873 146.859 195.669 147.087 195.524 147.368C195.382 147.646 195.311 147.949 195.311 148.276V149.021C195.311 149.459 195.388 149.831 195.541 150.138C195.697 150.445 195.915 150.679 196.193 150.841C196.471 151 196.797 151.08 197.169 151.08C197.41 151.08 197.631 151.045 197.829 150.977C198.028 150.906 198.2 150.801 198.345 150.662C198.49 150.523 198.601 150.351 198.677 150.146L199.883 150.364C199.787 150.719 199.613 151.03 199.363 151.297C199.116 151.561 198.805 151.767 198.43 151.915C198.058 152.06 197.633 152.132 197.156 152.132ZM201.378 152V145.455H202.601V146.52H202.682C202.818 146.159 203.041 145.878 203.351 145.676C203.661 145.472 204.031 145.369 204.463 145.369C204.901 145.369 205.267 145.472 205.563 145.676C205.861 145.881 206.081 146.162 206.223 146.52H206.291C206.448 146.17 206.696 145.892 207.037 145.685C207.378 145.474 207.784 145.369 208.256 145.369C208.85 145.369 209.334 145.555 209.709 145.928C210.087 146.3 210.276 146.861 210.276 147.611V152H209.002V147.73C209.002 147.287 208.881 146.966 208.639 146.767C208.398 146.568 208.11 146.469 207.774 146.469C207.36 146.469 207.037 146.597 206.807 146.852C206.577 147.105 206.462 147.43 206.462 147.828V152H205.192V147.649C205.192 147.294 205.081 147.009 204.86 146.793C204.638 146.577 204.35 146.469 203.994 146.469C203.753 146.469 203.53 146.533 203.325 146.661C203.124 146.786 202.96 146.96 202.835 147.185C202.713 147.409 202.652 147.669 202.652 147.964V152H201.378ZM213.888 152.145C213.474 152.145 213.099 152.068 212.763 151.915C212.428 151.759 212.162 151.533 211.966 151.237C211.773 150.942 211.677 150.58 211.677 150.151C211.677 149.781 211.748 149.477 211.89 149.239C212.032 149 212.224 148.811 212.465 148.672C212.706 148.533 212.976 148.428 213.275 148.357C213.573 148.286 213.877 148.232 214.187 148.195C214.579 148.149 214.897 148.112 215.141 148.084C215.385 148.053 215.563 148.003 215.674 147.935C215.785 147.866 215.84 147.756 215.84 147.602V147.572C215.84 147.2 215.735 146.912 215.525 146.707C215.317 146.503 215.008 146.401 214.596 146.401C214.167 146.401 213.829 146.496 213.581 146.686C213.337 146.874 213.168 147.082 213.074 147.312L211.877 147.04C212.019 146.642 212.226 146.321 212.499 146.077C212.775 145.83 213.091 145.651 213.449 145.54C213.807 145.426 214.184 145.369 214.579 145.369C214.84 145.369 215.117 145.401 215.41 145.463C215.705 145.523 215.981 145.634 216.236 145.795C216.495 145.957 216.706 146.189 216.871 146.49C217.036 146.788 217.118 147.176 217.118 147.653V152H215.874V151.105H215.823C215.741 151.27 215.617 151.432 215.452 151.591C215.287 151.75 215.076 151.882 214.817 151.987C214.559 152.092 214.249 152.145 213.888 152.145ZM214.165 151.122C214.518 151.122 214.819 151.053 215.069 150.913C215.322 150.774 215.513 150.592 215.644 150.368C215.778 150.141 215.844 149.898 215.844 149.639V148.795C215.799 148.841 215.711 148.884 215.58 148.923C215.452 148.96 215.306 148.993 215.141 149.021C214.976 149.047 214.816 149.071 214.66 149.094C214.503 149.114 214.373 149.131 214.268 149.145C214.02 149.176 213.795 149.229 213.59 149.303C213.388 149.376 213.226 149.483 213.104 149.622C212.985 149.759 212.925 149.94 212.925 150.168C212.925 150.483 213.042 150.722 213.275 150.884C213.508 151.043 213.805 151.122 214.165 151.122ZM221.871 145.455V146.477H218.296V145.455H221.871ZM219.254 143.886H220.529V150.078C220.529 150.325 220.566 150.511 220.639 150.636C220.713 150.759 220.808 150.842 220.925 150.888C221.044 150.93 221.173 150.952 221.313 150.952C221.415 150.952 221.504 150.945 221.581 150.93C221.658 150.916 221.718 150.905 221.76 150.896L221.99 151.949C221.916 151.977 221.811 152.006 221.675 152.034C221.539 152.065 221.368 152.082 221.164 152.085C220.828 152.091 220.516 152.031 220.226 151.906C219.936 151.781 219.702 151.588 219.523 151.327C219.344 151.065 219.254 150.737 219.254 150.342V143.886ZM228.361 152.145C227.946 152.145 227.571 152.068 227.236 151.915C226.901 151.759 226.635 151.533 226.439 151.237C226.246 150.942 226.149 150.58 226.149 150.151C226.149 149.781 226.22 149.477 226.362 149.239C226.504 149 226.696 148.811 226.938 148.672C227.179 148.533 227.449 148.428 227.747 148.357C228.046 148.286 228.35 148.232 228.659 148.195C229.051 148.149 229.369 148.112 229.614 148.084C229.858 148.053 230.036 148.003 230.146 147.935C230.257 147.866 230.313 147.756 230.313 147.602V147.572C230.313 147.2 230.208 146.912 229.997 146.707C229.79 146.503 229.48 146.401 229.068 146.401C228.639 146.401 228.301 146.496 228.054 146.686C227.81 146.874 227.641 147.082 227.547 147.312L226.35 147.04C226.492 146.642 226.699 146.321 226.972 146.077C227.247 145.83 227.564 145.651 227.922 145.54C228.28 145.426 228.656 145.369 229.051 145.369C229.313 145.369 229.59 145.401 229.882 145.463C230.178 145.523 230.453 145.634 230.709 145.795C230.968 145.957 231.179 146.189 231.344 146.49C231.509 146.788 231.591 147.176 231.591 147.653V152H230.347V151.105H230.296C230.213 151.27 230.09 151.432 229.925 151.591C229.76 151.75 229.548 151.882 229.29 151.987C229.031 152.092 228.722 152.145 228.361 152.145ZM228.638 151.122C228.99 151.122 229.291 151.053 229.541 150.913C229.794 150.774 229.986 150.592 230.117 150.368C230.25 150.141 230.317 149.898 230.317 149.639V148.795C230.271 148.841 230.183 148.884 230.053 148.923C229.925 148.96 229.779 148.993 229.614 149.021C229.449 149.047 229.289 149.071 229.132 149.094C228.976 149.114 228.845 149.131 228.74 149.145C228.493 149.176 228.267 149.229 228.063 149.303C227.861 149.376 227.699 149.483 227.577 149.622C227.458 149.759 227.398 149.94 227.398 150.168C227.398 150.483 227.514 150.722 227.747 150.884C227.98 151.043 228.277 151.122 228.638 151.122ZM234.562 148.114V152H233.288V145.455H234.511V146.52H234.592C234.743 146.173 234.979 145.895 235.3 145.685C235.623 145.474 236.031 145.369 236.523 145.369C236.969 145.369 237.359 145.463 237.694 145.651C238.03 145.835 238.29 146.111 238.474 146.477C238.659 146.844 238.751 147.297 238.751 147.837V152H237.477V147.99C237.477 147.516 237.354 147.145 237.106 146.878C236.859 146.608 236.52 146.473 236.088 146.473C235.792 146.473 235.53 146.537 235.3 146.665C235.072 146.793 234.892 146.98 234.758 147.227C234.628 147.472 234.562 147.767 234.562 148.114ZM242.91 152.128C242.382 152.128 241.91 151.993 241.496 151.723C241.084 151.45 240.76 151.062 240.524 150.56C240.291 150.054 240.175 149.447 240.175 148.74C240.175 148.033 240.292 147.428 240.528 146.925C240.767 146.422 241.094 146.037 241.508 145.77C241.923 145.503 242.393 145.369 242.919 145.369C243.325 145.369 243.652 145.438 243.899 145.574C244.149 145.707 244.342 145.864 244.479 146.043C244.618 146.222 244.726 146.379 244.802 146.516H244.879V143.273H246.153V152H244.909V150.982H244.802C244.726 151.121 244.615 151.28 244.47 151.459C244.328 151.638 244.132 151.794 243.882 151.928C243.632 152.061 243.308 152.128 242.91 152.128ZM243.192 151.041C243.558 151.041 243.868 150.945 244.121 150.751C244.376 150.555 244.569 150.284 244.7 149.938C244.834 149.591 244.9 149.187 244.9 148.727C244.9 148.273 244.835 147.875 244.704 147.534C244.574 147.193 244.382 146.928 244.129 146.737C243.876 146.547 243.564 146.452 243.192 146.452C242.808 146.452 242.488 146.551 242.233 146.75C241.977 146.949 241.784 147.22 241.653 147.564C241.525 147.908 241.461 148.295 241.461 148.727C241.461 149.165 241.527 149.558 241.657 149.908C241.788 150.257 241.981 150.534 242.237 150.739C242.496 150.94 242.814 151.041 243.192 151.041ZM254.203 145.455V146.477H250.628V145.455H254.203ZM251.586 143.886H252.861V150.078C252.861 150.325 252.898 150.511 252.971 150.636C253.045 150.759 253.14 150.842 253.257 150.888C253.376 150.93 253.506 150.952 253.645 150.952C253.747 150.952 253.836 150.945 253.913 150.93C253.99 150.916 254.05 150.905 254.092 150.896L254.322 151.949C254.248 151.977 254.143 152.006 254.007 152.034C253.871 152.065 253.7 152.082 253.496 152.085C253.16 152.091 252.848 152.031 252.558 151.906C252.268 151.781 252.034 151.588 251.855 151.327C251.676 151.065 251.586 150.737 251.586 150.342V143.886ZM255.612 152V145.455H256.844V146.494H256.912C257.031 146.142 257.242 145.865 257.543 145.663C257.847 145.459 258.191 145.357 258.574 145.357C258.654 145.357 258.747 145.359 258.855 145.365C258.966 145.371 259.053 145.378 259.115 145.386V146.605C259.064 146.591 258.973 146.575 258.843 146.558C258.712 146.538 258.581 146.528 258.45 146.528C258.149 146.528 257.881 146.592 257.645 146.72C257.412 146.845 257.227 147.02 257.091 147.244C256.955 147.466 256.887 147.719 256.887 148.003V152H255.612ZM262.064 152.145C261.649 152.145 261.274 152.068 260.939 151.915C260.604 151.759 260.338 151.533 260.142 151.237C259.949 150.942 259.852 150.58 259.852 150.151C259.852 149.781 259.923 149.477 260.066 149.239C260.208 149 260.399 148.811 260.641 148.672C260.882 148.533 261.152 148.428 261.45 148.357C261.749 148.286 262.053 148.232 262.362 148.195C262.754 148.149 263.073 148.112 263.317 148.084C263.561 148.053 263.739 148.003 263.85 147.935C263.96 147.866 264.016 147.756 264.016 147.602V147.572C264.016 147.2 263.911 146.912 263.7 146.707C263.493 146.503 263.183 146.401 262.771 146.401C262.343 146.401 262.004 146.496 261.757 146.686C261.513 146.874 261.344 147.082 261.25 147.312L260.053 147.04C260.195 146.642 260.402 146.321 260.675 146.077C260.95 145.83 261.267 145.651 261.625 145.54C261.983 145.426 262.36 145.369 262.754 145.369C263.016 145.369 263.293 145.401 263.585 145.463C263.881 145.523 264.156 145.634 264.412 145.795C264.671 145.957 264.882 146.189 265.047 146.49C265.212 146.788 265.294 147.176 265.294 147.653V152H264.05V151.105H263.999C263.916 151.27 263.793 151.432 263.628 151.591C263.463 151.75 263.252 151.882 262.993 151.987C262.735 152.092 262.425 152.145 262.064 152.145ZM262.341 151.122C262.693 151.122 262.994 151.053 263.244 150.913C263.497 150.774 263.689 150.592 263.82 150.368C263.953 150.141 264.02 149.898 264.02 149.639V148.795C263.975 148.841 263.887 148.884 263.756 148.923C263.628 148.96 263.482 148.993 263.317 149.021C263.152 149.047 262.992 149.071 262.835 149.094C262.679 149.114 262.548 149.131 262.443 149.145C262.196 149.176 261.97 149.229 261.766 149.303C261.564 149.376 261.402 149.483 261.28 149.622C261.161 149.759 261.101 149.94 261.101 150.168C261.101 150.483 261.218 150.722 261.45 150.884C261.683 151.043 261.98 151.122 262.341 151.122ZM269.442 152.128C268.913 152.128 268.442 151.993 268.027 151.723C267.615 151.45 267.291 151.062 267.055 150.56C266.822 150.054 266.706 149.447 266.706 148.74C266.706 148.033 266.824 147.428 267.059 146.925C267.298 146.422 267.625 146.037 268.04 145.77C268.454 145.503 268.925 145.369 269.45 145.369C269.856 145.369 270.183 145.438 270.43 145.574C270.68 145.707 270.873 145.864 271.01 146.043C271.149 146.222 271.257 146.379 271.334 146.516H271.41V143.273H272.684V152H271.44V150.982H271.334C271.257 151.121 271.146 151.28 271.001 151.459C270.859 151.638 270.663 151.794 270.413 151.928C270.163 152.061 269.839 152.128 269.442 152.128ZM269.723 151.041C270.089 151.041 270.399 150.945 270.652 150.751C270.907 150.555 271.101 150.284 271.231 149.938C271.365 149.591 271.432 149.187 271.432 148.727C271.432 148.273 271.366 147.875 271.236 147.534C271.105 147.193 270.913 146.928 270.66 146.737C270.407 146.547 270.095 146.452 269.723 146.452C269.339 146.452 269.02 146.551 268.764 146.75C268.508 146.949 268.315 147.22 268.184 147.564C268.057 147.908 267.993 148.295 267.993 148.727C267.993 149.165 268.058 149.558 268.189 149.908C268.319 150.257 268.513 150.534 268.768 150.739C269.027 150.94 269.345 151.041 269.723 151.041ZM274.503 152V145.455H275.777V152H274.503ZM275.146 144.445C274.925 144.445 274.735 144.371 274.575 144.223C274.419 144.072 274.341 143.893 274.341 143.686C274.341 143.476 274.419 143.297 274.575 143.149C274.735 142.999 274.925 142.923 275.146 142.923C275.368 142.923 275.557 142.999 275.713 143.149C275.872 143.297 275.952 143.476 275.952 143.686C275.952 143.893 275.872 144.072 275.713 144.223C275.557 144.371 275.368 144.445 275.146 144.445ZM278.765 148.114V152H277.491V145.455H278.714V146.52H278.795C278.946 146.173 279.182 145.895 279.503 145.685C279.827 145.474 280.234 145.369 280.726 145.369C281.172 145.369 281.562 145.463 281.898 145.651C282.233 145.835 282.493 146.111 282.677 146.477C282.862 146.844 282.954 147.297 282.954 147.837V152H281.68V147.99C281.68 147.516 281.557 147.145 281.309 146.878C281.062 146.608 280.723 146.473 280.291 146.473C279.996 146.473 279.733 146.537 279.503 146.665C279.275 146.793 279.095 146.98 278.961 147.227C278.831 147.472 278.765 147.767 278.765 148.114ZM287.407 154.591C286.888 154.591 286.44 154.523 286.065 154.386C285.693 154.25 285.389 154.07 285.153 153.845C284.917 153.621 284.741 153.375 284.625 153.108L285.72 152.656C285.797 152.781 285.899 152.913 286.027 153.053C286.157 153.195 286.334 153.315 286.555 153.415C286.78 153.514 287.068 153.564 287.42 153.564C287.903 153.564 288.302 153.446 288.618 153.21C288.933 152.977 289.091 152.605 289.091 152.094V150.807H289.01C288.933 150.946 288.822 151.101 288.677 151.271C288.535 151.442 288.339 151.589 288.089 151.714C287.839 151.839 287.514 151.902 287.113 151.902C286.596 151.902 286.131 151.781 285.716 151.54C285.304 151.295 284.977 150.936 284.736 150.462C284.497 149.984 284.378 149.398 284.378 148.702C284.378 148.006 284.496 147.409 284.731 146.912C284.97 146.415 285.297 146.034 285.711 145.77C286.126 145.503 286.596 145.369 287.122 145.369C287.528 145.369 287.856 145.438 288.106 145.574C288.356 145.707 288.551 145.864 288.69 146.043C288.832 146.222 288.942 146.379 289.018 146.516H289.112V145.455H290.361V152.145C290.361 152.707 290.23 153.169 289.969 153.53C289.707 153.891 289.354 154.158 288.907 154.331C288.464 154.504 287.964 154.591 287.407 154.591ZM287.395 150.845C287.761 150.845 288.071 150.76 288.324 150.589C288.579 150.416 288.773 150.169 288.903 149.848C289.037 149.524 289.104 149.136 289.104 148.685C289.104 148.244 289.038 147.857 288.907 147.521C288.777 147.186 288.585 146.925 288.332 146.737C288.079 146.547 287.767 146.452 287.395 146.452C287.011 146.452 286.692 146.551 286.436 146.75C286.18 146.946 285.987 147.213 285.856 147.551C285.729 147.889 285.665 148.267 285.665 148.685C285.665 149.114 285.73 149.49 285.861 149.814C285.991 150.138 286.184 150.391 286.44 150.572C286.699 150.754 287.017 150.845 287.395 150.845ZM141.836 172.145C141.421 172.145 141.046 172.068 140.711 171.915C140.375 171.759 140.11 171.533 139.914 171.237C139.721 170.942 139.624 170.58 139.624 170.151C139.624 169.781 139.695 169.477 139.837 169.239C139.979 169 140.171 168.811 140.412 168.672C140.654 168.533 140.924 168.428 141.222 168.357C141.52 168.286 141.824 168.232 142.134 168.195C142.526 168.149 142.844 168.112 143.088 168.084C143.333 168.053 143.51 168.003 143.621 167.935C143.732 167.866 143.787 167.756 143.787 167.602V167.572C143.787 167.2 143.682 166.912 143.472 166.707C143.265 166.503 142.955 166.401 142.543 166.401C142.114 166.401 141.776 166.496 141.529 166.686C141.284 166.874 141.115 167.082 141.022 167.312L139.824 167.04C139.966 166.642 140.174 166.321 140.446 166.077C140.722 165.83 141.039 165.651 141.397 165.54C141.755 165.426 142.131 165.369 142.526 165.369C142.787 165.369 143.064 165.401 143.357 165.463C143.652 165.523 143.928 165.634 144.184 165.795C144.442 165.957 144.654 166.189 144.819 166.49C144.983 166.788 145.066 167.176 145.066 167.653V172H143.821V171.105H143.77C143.688 171.27 143.564 171.432 143.4 171.591C143.235 171.75 143.023 171.882 142.765 171.987C142.506 172.092 142.196 172.145 141.836 172.145ZM142.113 171.122C142.465 171.122 142.766 171.053 143.016 170.913C143.269 170.774 143.461 170.592 143.591 170.368C143.725 170.141 143.792 169.898 143.792 169.639V168.795C143.746 168.841 143.658 168.884 143.527 168.923C143.4 168.96 143.253 168.993 143.088 169.021C142.924 169.047 142.763 169.071 142.607 169.094C142.451 169.114 142.32 169.131 142.215 169.145C141.968 169.176 141.742 169.229 141.537 169.303C141.336 169.376 141.174 169.483 141.051 169.622C140.932 169.759 140.873 169.94 140.873 170.168C140.873 170.483 140.989 170.722 141.222 170.884C141.455 171.043 141.752 171.122 142.113 171.122ZM149.52 172.132C148.886 172.132 148.341 171.989 147.884 171.702C147.429 171.412 147.08 171.013 146.835 170.504C146.591 169.996 146.469 169.413 146.469 168.757C146.469 168.092 146.594 167.506 146.844 166.997C147.094 166.486 147.446 166.087 147.901 165.8C148.355 165.513 148.891 165.369 149.507 165.369C150.004 165.369 150.447 165.462 150.837 165.646C151.226 165.828 151.54 166.084 151.778 166.413C152.02 166.743 152.163 167.128 152.209 167.568H150.969C150.901 167.261 150.744 166.997 150.5 166.776C150.259 166.554 149.935 166.443 149.528 166.443C149.173 166.443 148.862 166.537 148.595 166.724C148.331 166.909 148.125 167.173 147.977 167.517C147.83 167.858 147.756 168.261 147.756 168.727C147.756 169.205 147.828 169.616 147.973 169.963C148.118 170.31 148.322 170.578 148.587 170.768C148.854 170.959 149.168 171.054 149.528 171.054C149.77 171.054 149.989 171.01 150.185 170.922C150.384 170.831 150.55 170.702 150.683 170.534C150.82 170.366 150.915 170.165 150.969 169.929H152.209C152.163 170.352 152.026 170.73 151.795 171.062C151.565 171.395 151.257 171.656 150.871 171.847C150.487 172.037 150.037 172.132 149.52 172.132ZM156.328 172.132C155.695 172.132 155.15 171.989 154.692 171.702C154.238 171.412 153.888 171.013 153.644 170.504C153.4 169.996 153.277 169.413 153.277 168.757C153.277 168.092 153.402 167.506 153.652 166.997C153.902 166.486 154.255 166.087 154.709 165.8C155.164 165.513 155.699 165.369 156.316 165.369C156.813 165.369 157.256 165.462 157.645 165.646C158.034 165.828 158.348 166.084 158.587 166.413C158.828 166.743 158.972 167.128 159.017 167.568H157.777C157.709 167.261 157.553 166.997 157.309 166.776C157.067 166.554 156.743 166.443 156.337 166.443C155.982 166.443 155.671 166.537 155.404 166.724C155.14 166.909 154.934 167.173 154.786 167.517C154.638 167.858 154.564 168.261 154.564 168.727C154.564 169.205 154.637 169.616 154.782 169.963C154.926 170.31 155.131 170.578 155.395 170.768C155.662 170.959 155.976 171.054 156.337 171.054C156.578 171.054 156.797 171.01 156.993 170.922C157.192 170.831 157.358 170.702 157.492 170.534C157.628 170.366 157.723 170.165 157.777 169.929H159.017C158.972 170.352 158.834 170.73 158.604 171.062C158.374 171.395 158.066 171.656 157.679 171.847C157.296 172.037 156.846 172.132 156.328 172.132ZM163.137 172.132C162.523 172.132 161.988 171.991 161.531 171.71C161.073 171.429 160.718 171.036 160.465 170.53C160.212 170.024 160.086 169.433 160.086 168.757C160.086 168.078 160.212 167.484 160.465 166.976C160.718 166.467 161.073 166.072 161.531 165.791C161.988 165.51 162.523 165.369 163.137 165.369C163.751 165.369 164.286 165.51 164.744 165.791C165.201 166.072 165.556 166.467 165.809 166.976C166.062 167.484 166.188 168.078 166.188 168.757C166.188 169.433 166.062 170.024 165.809 170.53C165.556 171.036 165.201 171.429 164.744 171.71C164.286 171.991 163.751 172.132 163.137 172.132ZM163.141 171.062C163.539 171.062 163.869 170.957 164.13 170.747C164.391 170.537 164.585 170.257 164.71 169.908C164.837 169.558 164.901 169.173 164.901 168.753C164.901 168.335 164.837 167.952 164.71 167.602C164.585 167.25 164.391 166.967 164.13 166.754C163.869 166.541 163.539 166.435 163.141 166.435C162.741 166.435 162.408 166.541 162.144 166.754C161.883 166.967 161.688 167.25 161.56 167.602C161.435 167.952 161.373 168.335 161.373 168.753C161.373 169.173 161.435 169.558 161.56 169.908C161.688 170.257 161.883 170.537 162.144 170.747C162.408 170.957 162.741 171.062 163.141 171.062ZM171.757 169.286V165.455H173.035V172H171.782V170.866H171.714C171.564 171.216 171.322 171.507 170.99 171.74C170.66 171.97 170.25 172.085 169.758 172.085C169.338 172.085 168.966 171.993 168.642 171.808C168.321 171.621 168.068 171.344 167.883 170.977C167.701 170.611 167.61 170.158 167.61 169.618V165.455H168.885V169.464C168.885 169.911 169.008 170.266 169.255 170.53C169.502 170.794 169.824 170.926 170.218 170.926C170.457 170.926 170.694 170.866 170.93 170.747C171.169 170.628 171.366 170.447 171.522 170.206C171.681 169.964 171.76 169.658 171.757 169.286ZM176.021 168.114V172H174.747V165.455H175.97V166.52H176.051C176.202 166.173 176.438 165.895 176.759 165.685C177.082 165.474 177.49 165.369 177.982 165.369C178.428 165.369 178.818 165.463 179.153 165.651C179.489 165.835 179.749 166.111 179.933 166.477C180.118 166.844 180.21 167.297 180.21 167.837V172H178.936V167.99C178.936 167.516 178.813 167.145 178.565 166.878C178.318 166.608 177.979 166.473 177.547 166.473C177.251 166.473 176.989 166.537 176.759 166.665C176.531 166.793 176.351 166.98 176.217 167.227C176.087 167.472 176.021 167.767 176.021 168.114ZM184.974 165.455V166.477H181.399V165.455H184.974ZM182.358 163.886H183.632V170.078C183.632 170.325 183.669 170.511 183.743 170.636C183.817 170.759 183.912 170.842 184.028 170.888C184.148 170.93 184.277 170.952 184.416 170.952C184.518 170.952 184.608 170.945 184.685 170.93C184.761 170.916 184.821 170.905 184.864 170.896L185.094 171.949C185.02 171.977 184.915 172.006 184.778 172.034C184.642 172.065 184.472 172.082 184.267 172.085C183.932 172.091 183.619 172.031 183.33 171.906C183.04 171.781 182.805 171.588 182.626 171.327C182.447 171.065 182.358 170.737 182.358 170.342V163.886ZM187.223 172.081C186.99 172.081 186.79 171.999 186.623 171.834C186.455 171.666 186.371 171.464 186.371 171.229C186.371 170.996 186.455 170.797 186.623 170.632C186.79 170.464 186.99 170.381 187.223 170.381C187.456 170.381 187.657 170.464 187.824 170.632C187.992 170.797 188.076 170.996 188.076 171.229C188.076 171.385 188.036 171.528 187.956 171.659C187.88 171.787 187.777 171.889 187.65 171.966C187.522 172.043 187.38 172.081 187.223 172.081Z" fill="#606060"/>
<g filter="url(#filter0_dd_219_18527)">
<rect x="128" y="6" width="72" height="72" rx="36" fill="white"/>
<g clip-path="url(#clip0_219_18527)">
<path fill-rule="evenodd" clip-rule="evenodd" d="M176.031 64.0046H171.047V57.9031C171.047 57.5679 170.78 57.3015 170.445 57.3015C170.11 57.3015 169.844 57.5679 169.844 57.9031V64.0046H153.687V57.903C153.687 57.5678 153.421 57.3014 153.086 57.3014C152.751 57.3014 152.484 57.5678 152.484 57.903V64.0046H147.5C146.812 64.0046 146.297 63.5577 146.297 62.9734V53.7781C146.297 51.6382 147.431 49.6015 149.494 48.0461C151.228 46.7355 153.49 45.8709 155.961 45.5488L161.396 51.8531C161.516 51.982 161.68 52.0594 161.852 52.0594C162.032 52.0594 162.195 51.982 162.316 51.836L167.562 45.5444C170.189 45.8678 172.662 46.8945 174.475 48.3954C173.626 48.7025 172.847 49.1935 172.19 49.8508C171.004 51.0365 170.359 52.6173 170.359 54.2937C170.359 55.97 171.004 57.5508 172.19 58.7365C173.376 59.9224 174.956 60.5671 176.633 60.5671C176.835 60.5671 177.036 60.5577 177.234 60.5391V62.9735C177.234 63.5578 176.719 64.0046 176.031 64.0046ZM154.547 53.0046H152.055C151.719 53.0046 151.453 52.7382 151.453 52.403C151.453 52.0679 151.719 51.8014 152.055 51.8014L154.547 51.8015C154.882 51.8015 155.148 52.068 155.148 52.4031C155.148 52.7383 154.882 53.0046 154.547 53.0046ZM156.523 44.3545V43.8281C157.897 45.3249 159.636 46.3875 161.766 46.3875C163.867 46.3875 165.59 45.3538 166.958 43.8894L166.968 44.3715L161.843 50.5298L156.523 44.3545Z" fill="#8D9CA8"/>
<path fill-rule="evenodd" clip-rule="evenodd" d="M177.75 61.25C175.527 61.25 173.457 60.397 171.905 58.8449C170.353 57.2929 169.5 55.2234 169.5 53.0001C169.5 50.7768 170.353 48.7072 171.905 47.1551C173.457 45.603 175.527 44.75 177.75 44.75C179.973 44.75 182.043 45.603 183.595 47.1551C185.147 48.7072 186 50.7768 186 53.0001C186 55.2234 185.147 57.2929 183.595 58.845C182.043 60.3971 179.973 61.25 177.75 61.25ZM175.513 57.0552C175.261 57.0552 175.009 56.9573 174.827 56.7616L173.01 54.9438C172.632 54.5662 172.632 53.937 173.01 53.5594C173.387 53.1819 174.016 53.1819 174.394 53.5594L175.527 54.678L181.134 49.0848C181.511 48.7072 182.14 48.7072 182.518 49.0848C182.895 49.4623 182.895 50.0916 182.518 50.4691L176.226 56.7614C176.016 56.9573 175.764 57.0552 175.513 57.0552Z" fill="url(#paint2_linear_219_18527)"/>
<path fill-rule="evenodd" clip-rule="evenodd" d="M154.547 34.8672C154.401 34.8672 154.254 34.8156 154.134 34.7039C152.51 33.1999 151.814 28.1125 153.301 24.314C154.392 21.5297 156.48 20 159.187 20H161.594C163.716 20 165.993 20.5243 166.647 21.9508C167.867 21.5984 168.692 22.0023 169.19 22.4492C170.479 23.6094 170.78 26.1015 170.806 27.9922C170.832 30.0118 170.531 32.3406 170.084 33.6555C169.895 34.1969 169.611 34.8328 169.027 34.8758C168.761 34.893 168.511 34.7383 168.417 34.4891C168.331 34.2657 168.245 34.0337 168.151 33.7844C167.644 32.4782 167.076 31 166.922 29.7023C166.767 28.2843 166.432 27.8976 166.251 27.7859C165.865 27.5625 165.014 27.9319 164.111 28.3273C163.295 28.6796 162.376 29.0836 161.353 29.2725C161.207 29.2983 161.052 29.3327 160.906 29.367C159.643 29.6335 158.199 29.9342 156.893 29.41C156.48 29.2381 156.18 29.2124 156.008 29.324C155.44 29.6763 155.329 31.481 155.226 33.0794C155.2 33.4833 155.174 33.8958 155.14 34.3169C155.122 34.549 154.976 34.7466 154.761 34.8326C154.693 34.85 154.624 34.8672 154.547 34.8672Z" fill="#B4D2D7"/>
<path fill-rule="evenodd" clip-rule="evenodd" d="M161.766 45.1793C159.919 45.1793 158.226 44.1738 156.73 42.1887C155.725 40.8481 154.805 39.0263 154.212 37.1528C153.637 36.7661 153.31 36.3106 153.241 35.7778C153.121 34.841 153.877 34.0933 154.127 33.8442C154.359 33.6121 154.745 33.6121 154.977 33.8442C155.209 34.0762 155.209 34.4629 154.977 34.6949C154.591 35.0817 154.41 35.391 154.436 35.6231C154.47 35.8809 154.814 36.1215 155.02 36.2418C155.149 36.3192 155.252 36.4394 155.295 36.5856C156.335 39.9974 158.655 43.9761 161.766 43.9761C164.877 43.9761 167.198 39.9887 168.237 36.5856C168.28 36.4481 168.375 36.3278 168.495 36.2504C168.753 36.0958 169.062 35.8466 169.088 35.563C169.105 35.288 168.856 34.9442 168.598 34.7293C168.341 34.5145 168.306 34.1364 168.521 33.8786C168.736 33.6207 169.114 33.5863 169.372 33.8012C169.604 33.9988 170.36 34.7036 170.291 35.6488C170.248 36.2247 169.922 36.723 169.329 37.1442C168.727 39.0176 167.816 40.848 166.811 42.1886C165.307 44.1738 163.614 45.1793 161.766 45.1793Z" fill="#B4D2D7"/>
</g>
</g>
<defs>
<filter id="filter0_dd_219_18527" x="116" y="0" width="96" height="96" filterUnits="userSpaceOnUse" color-interpolation-filters="sRGB">
<feFlood flood-opacity="0" result="BackgroundImageFix"/>
<feColorMatrix in="SourceAlpha" type="matrix" values="0 0 0 0 0 0 0 0 0 0 0 0 0 0 0 0 0 0 127 0" result="hardAlpha"/>
<feOffset dy="3"/>
<feGaussianBlur stdDeviation="4"/>
<feColorMatrix type="matrix" values="0 0 0 0 0.341176 0 0 0 0 0.4 0 0 0 0 0.458824 0 0 0 0.06 0"/>
<feBlend mode="normal" in2="BackgroundImageFix" result="effect1_dropShadow_219_18527"/>
<feColorMatrix in="SourceAlpha" type="matrix" values="0 0 0 0 0 0 0 0 0 0 0 0 0 0 0 0 0 0 127 0" result="hardAlpha"/>
<feOffset dy="6"/>
<feGaussianBlur stdDeviation="6"/>
<feColorMatrix type="matrix" values="0 0 0 0 0.415686 0 0 0 0 0.45098 0 0 0 0 0.505882 0 0 0 0.16 0"/>
<feBlend mode="normal" in2="effect1_dropShadow_219_18527" result="effect2_dropShadow_219_18527"/>
<feBlend mode="normal" in="SourceGraphic" in2="effect2_dropShadow_219_18527" result="shape"/>
</filter>
<linearGradient id="paint0_linear_219_18527" x1="164" y1="42" x2="164" y2="190" gradientUnits="userSpaceOnUse">
<stop stop-color="white" stop-opacity="0.05"/>
<stop offset="1" stop-color="#0862BC" stop-opacity="0.1"/>
</linearGradient>
<linearGradient id="paint1_linear_219_18527" x1="-107.147" y1="66.6666" x2="435.987" y2="88.4989" gradientUnits="userSpaceOnUse">
<stop stop-color="#61B2F3"/>
<stop offset="1" stop-color="#0862BC"/>
</linearGradient>
<linearGradient id="paint2_linear_219_18527" x1="177.75" y1="67.4245" x2="177.75" y2="50.3894" gradientUnits="userSpaceOnUse">
<stop stop-color="#FF8415"/>
<stop offset="1" stop-color="#FFCA3F"/>
</linearGradient>
<clipPath id="clip0_219_18527">
<rect width="44" height="44" fill="white" transform="translate(142 20)"/>
</clipPath>
</defs>
</svg>
