<svg width="25" height="24" viewBox="0 0 25 24" fill="none" xmlns="http://www.w3.org/2000/svg">
<path d="M20.7874 5.29768C20.7003 5.20521 20.5803 5.14956 20.4525 5.14223C20.406 5.14223 15.8118 4.96844 12.7989 2.50907C12.6283 2.36286 12.3743 2.36286 12.2037 2.50907C9.19066 4.96843 4.59656 5.14223 4.55006 5.14223C4.42227 5.14956 4.30226 5.20521 4.21517 5.29768C4.13198 5.39398 4.09176 5.5193 4.1036 5.6451C4.1036 5.6451 4.53143 10.5276 4.71742 12.548C4.89419 14.5412 5.23817 18.2533 12.3063 21.5538V21.5536C12.4291 21.6147 12.5741 21.6147 12.6968 21.5536C19.7647 18.2531 20.1088 14.5409 20.2857 12.5478C20.4717 10.5273 20.8995 5.64494 20.8995 5.64494V5.6451C20.9114 5.5193 20.8711 5.39398 20.788 5.29768H20.7874Z" fill="#046DFA"/>
<path d="M10.6176 14.9742C10.3738 14.9752 10.1398 14.8791 9.96708 14.7072C9.79439 14.5352 9.69727 14.3016 9.69727 14.0578V11.407C9.69819 11.193 9.77371 10.9859 9.91085 10.8215C10.0479 10.6572 10.238 10.5457 10.4485 10.5064L10.7316 10.4552V9.20459C10.7327 8.84161 10.8787 8.49411 11.1372 8.23929C11.3956 7.98449 11.7452 7.84353 12.1082 7.84775H12.9341C13.2901 7.85394 13.6297 7.99944 13.8797 8.25313C14.1297 8.50682 14.2702 8.84839 14.2712 9.20459C14.2702 8.84504 14.1269 8.50055 13.8727 8.24629C13.6184 7.99208 13.2739 7.84881 12.9144 7.84775H12.1082C11.7452 7.84353 11.3956 7.98449 11.1372 8.23929C10.8787 8.49411 10.7327 8.84161 10.7316 9.20459V10.4907H14.2712V10.4552L14.5544 10.5064C14.7641 10.5465 14.9533 10.6583 15.0896 10.8226C15.2259 10.9869 15.3009 11.1935 15.3016 11.407V14.0579C15.3016 14.3009 15.2051 14.5339 15.0333 14.7058C14.8614 14.8776 14.6284 14.9742 14.3853 14.9742L10.6176 14.9742ZM11.8329 14.223H13.17V13.2791C13.4687 13.0483 13.6272 12.6797 13.5892 12.304C13.5513 11.9285 13.3222 11.599 12.9834 11.4326C12.6445 11.2663 12.2438 11.2864 11.9233 11.486C11.6029 11.6856 11.4082 12.0364 11.4081 12.4139C11.4062 12.7529 11.5635 13.0732 11.8328 13.2791L11.8329 14.223Z" fill="white"/>
<path d="M14.427 10.8314H14.4899C14.6211 10.8561 14.7396 10.9257 14.8251 11.0284C14.9105 11.131 14.9575 11.2602 14.9579 11.3938V14.0446C14.9579 14.1969 14.8975 14.3429 14.7898 14.4505C14.682 14.5583 14.536 14.6188 14.3837 14.6188H10.6161C10.4638 14.6188 10.3178 14.5583 10.21 14.4505C10.1023 14.3429 10.0419 14.1969 10.0419 14.0446V11.4056C10.0423 11.272 10.0893 11.1428 10.1747 11.0401C10.2601 10.9375 10.3787 10.8678 10.5099 10.8431H14.427M11.4892 13.4309V14.5636H13.5106L13.5105 13.4309C13.7849 13.1633 13.9382 12.7955 13.9353 12.4123C13.9353 11.8994 13.6617 11.4255 13.2176 11.1691C12.7735 10.9127 12.2262 10.9127 11.7821 11.1691C11.3379 11.4255 11.0643 11.8994 11.0643 12.4123C11.0614 12.7955 11.2147 13.1633 11.4891 13.4309M12.9128 7.50007H12.1066C11.6518 7.49592 11.2142 7.67336 10.8908 7.99302C10.5674 8.31274 10.385 8.74828 10.3839 9.20304V10.1666C10.0947 10.2207 9.83348 10.3741 9.64538 10.6002C9.45728 10.8265 9.35404 11.1112 9.35352 11.4055V14.0563C9.35352 14.3911 9.48651 14.7122 9.72328 14.949C9.96006 15.1857 10.2812 15.3187 10.616 15.3187H14.3838H14.3838C14.7186 15.3187 15.0397 15.1857 15.2765 14.949C15.5133 14.7122 15.6463 14.3911 15.6463 14.0563V11.4055C15.6456 11.1107 15.5418 10.8254 15.3529 10.5992C15.164 10.3729 14.9018 10.2199 14.6119 10.1666V9.20304C14.6109 8.75236 14.4316 8.32045 14.1134 8.00138C13.7951 7.68238 13.3635 7.50218 12.9129 7.50007H12.9128ZM11.0722 10.143V9.20302C11.0732 8.93077 11.1831 8.67031 11.3775 8.47969C11.5718 8.28903 11.8343 8.18414 12.1065 8.18835H12.9324C13.2009 8.18941 13.4579 8.29673 13.6473 8.48694C13.8368 8.67709 13.9432 8.9346 13.9432 9.20302V10.143H11.0722ZM12.1773 13.8752V13.0886V13.0887C11.972 12.9904 11.8226 12.8039 11.7716 12.5821C11.7205 12.3603 11.7734 12.1273 11.9152 11.9492C12.057 11.7711 12.2722 11.6673 12.4998 11.6673C12.7274 11.6673 12.9427 11.7711 13.0844 11.9492C13.2262 12.1273 13.2791 12.3603 13.228 12.5821C13.177 12.8039 13.0277 12.9904 12.8223 13.0887V13.8753L12.1773 13.8752Z" fill="white"/>
</svg>
