<svg width="56" height="24" viewBox="0 0 56 24" fill="none" xmlns="http://www.w3.org/2000/svg">
<g clip-path="url(#clip0_381_1996)">
<path d="M1.44567 17V6.81818H3.29013V11.1286H8.00817V6.81818H9.8576V17H8.00817V12.6747H3.29013V17H1.44567ZM15.1648 17.1491C14.3991 17.1491 13.7379 16.9901 13.1811 16.6719C12.6276 16.3504 12.2017 15.8963 11.9034 15.3097C11.6051 14.7197 11.456 14.0253 11.456 13.2266C11.456 12.4411 11.6051 11.7517 11.9034 11.1584C12.205 10.5618 12.6259 10.0978 13.1662 9.76633C13.7064 9.43158 14.3411 9.2642 15.0703 9.2642C15.541 9.2642 15.9851 9.34044 16.4027 9.4929C16.8236 9.64205 17.1948 9.87405 17.5163 10.1889C17.8411 10.5038 18.0964 10.9048 18.282 11.392C18.4676 11.8759 18.5604 12.4527 18.5604 13.1222V13.674H12.3011V12.4609H16.8352C16.8319 12.1162 16.7573 11.8097 16.6115 11.5412C16.4657 11.2694 16.2618 11.0556 16 10.8999C15.7415 10.7441 15.4399 10.6662 15.0952 10.6662C14.7273 10.6662 14.4041 10.7557 14.1257 10.9347C13.8473 11.1103 13.6302 11.3423 13.4744 11.6307C13.322 11.9157 13.2441 12.2289 13.2408 12.5703V13.6293C13.2408 14.0734 13.322 14.4545 13.4844 14.7727C13.6468 15.0876 13.8738 15.3295 14.1655 15.4986C14.4571 15.6643 14.7985 15.7472 15.1896 15.7472C15.4515 15.7472 15.6884 15.7107 15.9006 15.6378C16.1127 15.5616 16.2966 15.4505 16.4524 15.3047C16.6082 15.1589 16.7259 14.9782 16.8054 14.7628L18.4858 14.9517C18.3797 15.3958 18.1776 15.7836 17.8793 16.1151C17.5843 16.4432 17.2064 16.6984 16.7457 16.8807C16.285 17.0597 15.758 17.1491 15.1648 17.1491ZM21.8826 6.81818V17H20.0829V6.81818H21.8826ZM23.7333 19.8636V9.36364H25.5032V10.6264H25.6076C25.7004 10.4408 25.8313 10.2436 26.0004 10.0348C26.1694 9.82268 26.3981 9.64205 26.6864 9.4929C26.9748 9.34044 27.3427 9.2642 27.7901 9.2642C28.3801 9.2642 28.9121 9.41501 29.386 9.71662C29.8633 10.0149 30.2411 10.4574 30.5195 11.044C30.8013 11.6274 30.9421 12.3433 30.9421 13.1918C30.9421 14.0303 30.8046 14.7429 30.5295 15.3295C30.2544 15.9162 29.8799 16.3636 29.4059 16.6719C28.9319 16.9801 28.395 17.1342 27.7951 17.1342C27.3576 17.1342 26.9947 17.0613 26.7063 16.9155C26.418 16.7696 26.186 16.594 26.0103 16.3885C25.8379 16.1797 25.7037 15.9825 25.6076 15.7969H25.533V19.8636H23.7333ZM25.4982 13.1818C25.4982 13.6757 25.5678 14.1082 25.707 14.4794C25.8496 14.8506 26.0534 15.1406 26.3185 15.3494C26.587 15.5549 26.9118 15.6577 27.293 15.6577C27.6907 15.6577 28.0238 15.5516 28.2923 15.3395C28.5607 15.1241 28.7629 14.8307 28.8988 14.4595C29.038 14.085 29.1076 13.6591 29.1076 13.1818C29.1076 12.7079 29.0397 12.2869 28.9038 11.919C28.7679 11.5511 28.5657 11.2628 28.2972 11.054C28.0288 10.8452 27.694 10.7408 27.293 10.7408C26.9085 10.7408 26.582 10.8419 26.3136 11.044C26.0451 11.2462 25.8413 11.5296 25.7021 11.8942C25.5662 12.2588 25.4982 12.688 25.4982 13.1818Z" fill="#0862BC"/>
<g clip-path="url(#clip1_381_1996)">
<mask id="mask0_381_1996" style="mask-type:luminance" maskUnits="userSpaceOnUse" x="36" y="2" width="20" height="20">
<path d="M36 2H56V22H36V2Z" fill="white"/>
</mask>
<g mask="url(#mask0_381_1996)">
<path d="M43.7695 16.6858C44.3045 19.3817 46.6825 21.4141 49.5355 21.4141C50.7152 21.4141 51.8135 21.0664 52.7341 20.4682L55.1318 21.1314L54.4686 18.7337C55.0668 17.8131 55.4145 16.7148 55.4145 15.5352C55.4145 12.6821 53.3821 10.3041 50.6862 9.76914" stroke="#0862BC" stroke-width="1.17187" stroke-miterlimit="10"/>
<path d="M43.6367 2.58594C39.7427 2.58594 36.5859 5.7427 36.5859 9.63672C36.5859 11.0327 36.9918 12.3339 37.6917 13.4289L36.8686 16.4049L39.8445 15.5818C40.9395 16.2817 42.2407 16.6875 43.6367 16.6875C47.5307 16.6875 50.6875 13.5307 50.6875 9.63672C50.6875 5.7427 47.5307 2.58594 43.6367 2.58594Z" stroke="#0862BC" stroke-width="1.17187" stroke-miterlimit="10"/>
<path d="M44.2227 13.7578H43.0508V12.5859H44.2227V13.7578Z" fill="#0862BC"/>
<path d="M41.8789 7.85938C41.8789 6.88856 42.6659 6.10156 43.6367 6.10156C44.6075 6.10156 45.3945 6.88856 45.3945 7.85938C45.3945 8.37305 45.1741 8.8352 44.8228 9.15656L43.6367 10.2422V11.4141" stroke="#0862BC" stroke-width="1.17187" stroke-miterlimit="10"/>
</g>
</g>
</g>
<defs>
<clipPath id="clip0_381_1996">
<rect width="56" height="24" rx="4" fill="white"/>
</clipPath>
<clipPath id="clip1_381_1996">
<rect width="20" height="20" fill="white" transform="translate(36 2)"/>
</clipPath>
</defs>
</svg>
