<svg width="18" height="18" viewBox="0 0 18 18" fill="none" xmlns="http://www.w3.org/2000/svg">
<path d="M8.46 13H9.66V8.2H8.46V13ZM9 6.72C9.18667 6.72 9.34333 6.66 9.47 6.54C9.59667 6.42 9.66 6.26667 9.66 6.08C9.66 5.89333 9.59667 5.73333 9.47 5.6C9.34333 5.46667 9.18667 5.4 9 5.4C8.81333 5.4 8.65667 5.46667 8.53 5.6C8.40333 5.73333 8.34 5.89333 8.34 6.08C8.34 6.26667 8.40333 6.42 8.53 6.54C8.65667 6.66 8.81333 6.72 9 6.72ZM9 17C7.90667 17 6.87333 16.79 5.9 16.37C4.92667 15.95 4.07667 15.3767 3.35 14.65C2.62333 13.9233 2.05 13.0733 1.63 12.1C1.21 11.1267 1 10.0867 1 8.98C1 7.88667 1.21 6.85333 1.63 5.88C2.05 4.90667 2.62333 4.06 3.35 3.34C4.07667 2.62 4.92667 2.05 5.9 1.63C6.87333 1.21 7.91333 1 9.02 1C10.1133 1 11.1467 1.21 12.12 1.63C13.0933 2.05 13.94 2.62 14.66 3.34C15.38 4.06 15.95 4.90667 16.37 5.88C16.79 6.85333 17 7.89333 17 9C17 10.0933 16.79 11.1267 16.37 12.1C15.95 13.0733 15.38 13.9233 14.66 14.65C13.94 15.3767 13.0933 15.95 12.12 16.37C11.1467 16.79 10.1067 17 9 17ZM9.02 15.8C10.9 15.8 12.5 15.1367 13.82 13.81C15.14 12.4833 15.8 10.8733 15.8 8.98C15.8 7.1 15.14 5.5 13.82 4.18C12.5 2.86 10.8933 2.2 9 2.2C7.12 2.2 5.51667 2.86 4.19 4.18C2.86333 5.5 2.2 7.10667 2.2 9C2.2 10.88 2.86333 12.4833 4.19 13.81C5.51667 15.1367 7.12667 15.8 9.02 15.8Z" fill="#202020" stroke="black" stroke-width="0.533333"/>
</svg>
