<svg width="16" height="16" viewBox="0 0 16 16" fill="none" xmlns="http://www.w3.org/2000/svg">
<path d="M6.36433 2.67932C6.36433 2.312 6.6621 2.01423 7.02942 2.01423H14.9353C15.3026 2.01423 15.6004 2.312 15.6004 2.67932C15.6004 3.04664 15.3026 3.3444 14.9353 3.3444H7.02942C6.6621 3.3444 6.36433 3.04664 6.36433 2.67932ZM3.78246 0.871612L2.11509 2.98725L1.59898 2.30554C1.37731 2.01169 0.959388 1.95317 0.665535 2.17485C0.371681 2.39653 0.313169 2.81445 0.534845 3.1083L1.57371 4.47505C1.69762 4.6403 1.89127 4.7386 2.0978 4.74109H2.10445C2.3081 4.74101 2.50049 4.64763 2.62654 4.48769L4.82665 1.69432C5.0542 1.40598 5.00492 0.987763 4.71658 0.76021C4.42823 0.532657 4.01002 0.581938 3.78246 0.870282V0.871612ZM14.9353 7.33493H7.02942C6.6621 7.33493 6.36433 7.63269 6.36433 8.00001C6.36433 8.36733 6.6621 8.6651 7.02942 8.6651H14.9353C15.3026 8.6651 15.6004 8.36733 15.6004 8.00001C15.6004 7.63269 15.3026 7.33493 14.9353 7.33493ZM14.9353 12.6556H7.02942C6.6621 12.6556 6.36433 12.9534 6.36433 13.3207C6.36433 13.688 6.6621 13.9858 7.02942 13.9858H14.9353C15.3026 13.9858 15.6004 13.688 15.6004 13.3207C15.6004 12.9534 15.3026 12.6556 14.9353 12.6556ZM4.7475 8.00001C4.7475 9.13869 3.82442 10.0618 2.68574 10.0618C1.54705 10.0618 0.623966 9.13869 0.623967 8.00001C0.623967 6.86133 1.54705 5.93824 2.68574 5.93824C3.82442 5.93824 4.7475 6.86133 4.7475 8.00001ZM3.41733 8.00001C3.41733 7.59596 3.08978 7.26842 2.68574 7.26842C2.28169 7.26842 1.95414 7.59596 1.95414 8.00001C1.95414 8.40406 2.28169 8.73161 2.68574 8.73161C3.08978 8.73161 3.41733 8.40406 3.41733 8.00001ZM4.7475 13.3207C4.7475 14.4594 3.82442 15.3825 2.68574 15.3825C1.54705 15.3825 0.623966 14.4594 0.623967 13.3207C0.623967 12.182 1.54705 11.2589 2.68574 11.2589C3.82442 11.2589 4.7475 12.182 4.7475 13.3207ZM3.41733 13.3207C3.41733 12.9167 3.08978 12.5891 2.68574 12.5891C2.28169 12.5891 1.95414 12.9167 1.95414 13.3207C1.95414 13.7248 2.28169 14.0523 2.68574 14.0523C3.08978 14.0523 3.41733 13.7248 3.41733 13.3207Z" fill="#202020"/>
</svg>
