<svg width="52" height="11" viewBox="0 0 52 11" fill="none" xmlns="http://www.w3.org/2000/svg">
<path d="M0.632102 8V0.727273H3.50142C4.05066 0.727273 4.51941 0.825521 4.90767 1.02202C5.2983 1.21615 5.59541 1.49195 5.79901 1.84943C6.00497 2.20455 6.10795 2.6224 6.10795 3.10298C6.10795 3.58594 6.00379 4.00142 5.79545 4.34943C5.58712 4.69508 5.28527 4.96023 4.88991 5.14489C4.49692 5.32955 4.02107 5.42188 3.46236 5.42188H1.54119V4.18608H3.21378C3.50734 4.18608 3.75118 4.14583 3.94531 4.06534C4.13944 3.98485 4.28385 3.86411 4.37855 3.70312C4.47562 3.54214 4.52415 3.34209 4.52415 3.10298C4.52415 2.86151 4.47562 2.65791 4.37855 2.49219C4.28385 2.32647 4.13826 2.20099 3.94176 2.11577C3.74763 2.02817 3.5026 1.98438 3.20668 1.98438H2.16974V8H0.632102ZM4.55966 4.69034L6.36719 8H4.66974L2.90128 4.69034H4.55966ZM9.5641 8.10653C9.00302 8.10653 8.52006 7.9929 8.11523 7.76562C7.71277 7.53598 7.40264 7.21165 7.18484 6.79261C6.96703 6.37121 6.85813 5.87287 6.85813 5.29759C6.85813 4.73651 6.96703 4.24408 7.18484 3.82031C7.40264 3.39654 7.70922 3.06629 8.10458 2.82955C8.50231 2.5928 8.96869 2.47443 9.50373 2.47443C9.86358 2.47443 10.1986 2.53243 10.5087 2.64844C10.8212 2.76207 11.0935 2.93371 11.3255 3.16335C11.5598 3.39299 11.7421 3.68182 11.8723 4.02983C12.0025 4.37547 12.0676 4.7803 12.0676 5.24432V5.6598H7.46183V4.7223H10.6436C10.6436 4.5045 10.5963 4.31155 10.5016 4.14347C10.4069 3.97538 10.2755 3.84399 10.1074 3.74929C9.9417 3.65223 9.74876 3.60369 9.52859 3.60369C9.29895 3.60369 9.09535 3.65696 8.91779 3.76349C8.7426 3.86766 8.60529 4.00852 8.50586 4.18608C8.40643 4.36127 8.35553 4.55658 8.35316 4.77202V5.66335C8.35316 5.93324 8.40288 6.16643 8.50231 6.36293C8.60411 6.55942 8.74734 6.71094 8.932 6.81747C9.11665 6.92401 9.33564 6.97727 9.58896 6.97727C9.75704 6.97727 9.91093 6.9536 10.0506 6.90625C10.1903 6.8589 10.3098 6.78788 10.4093 6.69318C10.5087 6.59848 10.5845 6.48248 10.6365 6.34517L12.0357 6.4375C11.9647 6.77367 11.8191 7.06723 11.5989 7.31818C11.3811 7.56676 11.0994 7.76089 10.7537 7.90057C10.4105 8.03788 10.0139 8.10653 9.5641 8.10653ZM14.6103 8.10298C14.2623 8.10298 13.9521 8.04261 13.6799 7.92188C13.4076 7.79877 13.1922 7.61766 13.0336 7.37855C12.8773 7.13707 12.7992 6.83641 12.7992 6.47656C12.7992 6.17353 12.8548 5.91903 12.9661 5.71307C13.0774 5.5071 13.2289 5.34138 13.4206 5.21591C13.6124 5.09044 13.8302 4.99574 14.074 4.93182C14.3203 4.8679 14.5783 4.82292 14.8482 4.79688C15.1654 4.76373 15.4211 4.73295 15.6152 4.70455C15.8094 4.67377 15.9502 4.62879 16.0378 4.5696C16.1254 4.51042 16.1692 4.42282 16.1692 4.30682V4.28551C16.1692 4.06061 16.0982 3.8866 15.9561 3.76349C15.8165 3.64039 15.6176 3.57884 15.3596 3.57884C15.0873 3.57884 14.8707 3.6392 14.7097 3.75994C14.5487 3.87831 14.4422 4.02746 14.3901 4.20739L12.9909 4.09375C13.062 3.76231 13.2016 3.47585 13.41 3.23438C13.6183 2.99053 13.887 2.8035 14.2161 2.6733C14.5475 2.54072 14.931 2.47443 15.3667 2.47443C15.6697 2.47443 15.9597 2.50994 16.2367 2.58097C16.516 2.65199 16.7634 2.76207 16.9789 2.91122C17.1967 3.06037 17.3683 3.25213 17.4938 3.48651C17.6193 3.71851 17.682 3.99669 17.682 4.32102V8H16.2473V7.24361H16.2047C16.1171 7.41406 15.9999 7.56439 15.8532 7.6946C15.7064 7.82244 15.53 7.92306 15.324 7.99645C15.1181 8.06747 14.8801 8.10298 14.6103 8.10298ZM15.0435 7.05895C15.266 7.05895 15.4625 7.01515 15.633 6.92756C15.8034 6.83759 15.9372 6.71686 16.0343 6.56534C16.1313 6.41383 16.1799 6.24219 16.1799 6.05043V5.47159C16.1325 5.50237 16.0674 5.53078 15.9846 5.55682C15.9041 5.58049 15.8129 5.60298 15.7111 5.62429C15.6093 5.64323 15.5075 5.66098 15.4057 5.67756C15.3039 5.69176 15.2116 5.70478 15.1287 5.71662C14.9512 5.74266 14.7961 5.78409 14.6635 5.84091C14.531 5.89773 14.428 5.97467 14.3546 6.07173C14.2812 6.16643 14.2445 6.2848 14.2445 6.42685C14.2445 6.63281 14.3191 6.79025 14.4682 6.89915C14.6197 7.00568 14.8115 7.05895 15.0435 7.05895ZM20.8656 8.08878C20.4513 8.08878 20.0761 7.98224 19.7399 7.76918C19.4061 7.55374 19.1409 7.23769 18.9444 6.82102C18.7503 6.40199 18.6532 5.88826 18.6532 5.27983C18.6532 4.65483 18.7538 4.13518 18.9551 3.72088C19.1563 3.30421 19.4238 2.9929 19.7576 2.78693C20.0938 2.5786 20.4619 2.47443 20.862 2.47443C21.1674 2.47443 21.4219 2.52652 21.6255 2.63068C21.8315 2.73248 21.9972 2.86032 22.1227 3.0142C22.2505 3.16572 22.3476 3.31487 22.4139 3.46165H22.46V0.727273H23.9693V8H22.4778V7.12642H22.4139C22.3429 7.27794 22.2422 7.42827 22.112 7.57741C21.9842 7.7242 21.8173 7.84612 21.6113 7.94318C21.4077 8.04025 21.1592 8.08878 20.8656 8.08878ZM21.345 6.88494C21.5888 6.88494 21.7948 6.81866 21.9629 6.68608C22.1333 6.55114 22.2636 6.36293 22.3535 6.12145C22.4458 5.87997 22.492 5.59706 22.492 5.27273C22.492 4.94839 22.447 4.66667 22.3571 4.42756C22.2671 4.18845 22.1369 4.00379 21.9664 3.87358C21.796 3.74337 21.5888 3.67827 21.345 3.67827C21.0964 3.67827 20.8869 3.74574 20.7164 3.88068C20.546 4.01562 20.417 4.20265 20.3294 4.44176C20.2418 4.68087 20.198 4.95786 20.198 5.27273C20.198 5.58996 20.2418 5.8705 20.3294 6.11435C20.4193 6.35582 20.5484 6.54522 20.7164 6.68253C20.8869 6.81747 21.0964 6.88494 21.345 6.88494ZM27.5275 8V2.54545H28.9693V3.50781H29.0332C29.1468 3.18821 29.3362 2.93608 29.6014 2.75142C29.8665 2.56676 30.1838 2.47443 30.5531 2.47443C30.9271 2.47443 31.2456 2.56795 31.5083 2.75497C31.7711 2.93963 31.9463 3.19058 32.0339 3.50781H32.0907C32.202 3.19531 32.4032 2.94555 32.6944 2.75852C32.988 2.56913 33.3348 2.47443 33.7349 2.47443C34.2439 2.47443 34.657 2.6366 34.9743 2.96094C35.2939 3.28291 35.4537 3.73982 35.4537 4.33168V8H33.9444V4.62997C33.9444 4.32694 33.8639 4.09967 33.7029 3.94815C33.542 3.79664 33.3407 3.72088 33.0993 3.72088C32.8246 3.72088 32.6104 3.80848 32.4565 3.98366C32.3026 4.15649 32.2257 4.38494 32.2257 4.66903V8H30.7591V4.59801C30.7591 4.33049 30.6821 4.11742 30.5282 3.95881C30.3767 3.80019 30.1767 3.72088 29.9281 3.72088C29.76 3.72088 29.6085 3.76349 29.4735 3.84872C29.341 3.93158 29.2356 4.04877 29.1575 4.20028C29.0794 4.34943 29.0403 4.52462 29.0403 4.72585V8H27.5275ZM39.1131 8.10653C38.5615 8.10653 38.0845 7.98935 37.682 7.75497C37.2819 7.51823 36.973 7.18916 36.7551 6.76776C36.5373 6.34399 36.4284 5.85275 36.4284 5.29403C36.4284 4.73059 36.5373 4.23816 36.7551 3.81676C36.973 3.39299 37.2819 3.06392 37.682 2.82955C38.0845 2.5928 38.5615 2.47443 39.1131 2.47443C39.6647 2.47443 40.1406 2.5928 40.5407 2.82955C40.9431 3.06392 41.2533 3.39299 41.4711 3.81676C41.6889 4.23816 41.7978 4.73059 41.7978 5.29403C41.7978 5.85275 41.6889 6.34399 41.4711 6.76776C41.2533 7.18916 40.9431 7.51823 40.5407 7.75497C40.1406 7.98935 39.6647 8.10653 39.1131 8.10653ZM39.1202 6.93466C39.3712 6.93466 39.5807 6.86364 39.7488 6.72159C39.9168 6.57718 40.0435 6.38068 40.1287 6.1321C40.2163 5.88352 40.2601 5.60062 40.2601 5.28338C40.2601 4.96615 40.2163 4.68324 40.1287 4.43466C40.0435 4.18608 39.9168 3.98958 39.7488 3.84517C39.5807 3.70076 39.3712 3.62855 39.1202 3.62855C38.8669 3.62855 38.6538 3.70076 38.481 3.84517C38.3105 3.98958 38.1815 4.18608 38.0939 4.43466C38.0087 4.68324 37.9661 4.96615 37.9661 5.28338C37.9661 5.60062 38.0087 5.88352 38.0939 6.1321C38.1815 6.38068 38.3105 6.57718 38.481 6.72159C38.6538 6.86364 38.8669 6.93466 39.1202 6.93466ZM42.7814 8V2.54545H44.248V3.49716H44.3049C44.4043 3.15862 44.5712 2.90294 44.8056 2.73011C45.04 2.55492 45.3098 2.46733 45.6152 2.46733C45.691 2.46733 45.7727 2.47206 45.8603 2.48153C45.9479 2.491 46.0248 2.50402 46.0911 2.5206V3.86293C46.0201 3.84162 45.9218 3.82268 45.7963 3.80611C45.6709 3.78954 45.556 3.78125 45.4519 3.78125C45.2293 3.78125 45.0305 3.82978 44.8553 3.92685C44.6825 4.02154 44.5452 4.15412 44.4434 4.32457C44.3439 4.49503 44.2942 4.69152 44.2942 4.91406V8H42.7814ZM49.1051 8.10653C48.544 8.10653 48.0611 7.9929 47.6562 7.76562C47.2538 7.53598 46.9437 7.21165 46.7259 6.79261C46.508 6.37121 46.3991 5.87287 46.3991 5.29759C46.3991 4.73651 46.508 4.24408 46.7259 3.82031C46.9437 3.39654 47.2502 3.06629 47.6456 2.82955C48.0433 2.5928 48.5097 2.47443 49.0447 2.47443C49.4046 2.47443 49.7396 2.53243 50.0497 2.64844C50.3622 2.76207 50.6345 2.93371 50.8665 3.16335C51.1009 3.39299 51.2831 3.68182 51.4134 4.02983C51.5436 4.37547 51.6087 4.7803 51.6087 5.24432V5.6598H47.0028V4.7223H50.1847C50.1847 4.5045 50.1373 4.31155 50.0426 4.14347C49.9479 3.97538 49.8165 3.84399 49.6484 3.74929C49.4827 3.65223 49.2898 3.60369 49.0696 3.60369C48.84 3.60369 48.6364 3.65696 48.4588 3.76349C48.2836 3.86766 48.1463 4.00852 48.0469 4.18608C47.9474 4.36127 47.8965 4.55658 47.8942 4.77202V5.66335C47.8942 5.93324 47.9439 6.16643 48.0433 6.36293C48.1451 6.55942 48.2884 6.71094 48.473 6.81747C48.6577 6.92401 48.8767 6.97727 49.13 6.97727C49.2981 6.97727 49.4519 6.9536 49.5916 6.90625C49.7313 6.8589 49.8509 6.78788 49.9503 6.69318C50.0497 6.59848 50.1255 6.48248 50.1776 6.34517L51.5767 6.4375C51.5057 6.77367 51.3601 7.06723 51.1399 7.31818C50.9221 7.56676 50.6404 7.76089 50.2947 7.90057C49.9515 8.03788 49.5549 8.10653 49.1051 8.10653Z" fill="#0862BC"/>
<path d="M0 9.98864H51.9922V10.6705H0V9.98864Z" fill="#0862BC"/>
</svg>
