<svg width="16" height="16" viewBox="0 0 16 16" fill="none" xmlns="http://www.w3.org/2000/svg">
<path d="M8 0.5C12.141 0.500001 15.5 3.85899 15.5 8C15.5 12.141 12.141 15.5 8 15.5C3.85899 15.5 0.500001 12.141 0.5 8C0.5 3.85899 3.85899 0.5 8 0.5ZM8 2.35742C7.40956 2.35742 6.92871 2.83827 6.92871 3.42871V8C6.92871 8.32894 7.07933 8.63377 7.32812 8.83496L7.33008 8.83594L10.1875 11.1211C10.3872 11.2822 10.625 11.3574 10.8574 11.3574C11.1721 11.3573 11.4843 11.2179 11.6943 10.9541L11.6934 10.9531C12.0621 10.4915 11.9871 9.8192 11.5273 9.4502L11.5264 9.44922L9.07129 7.48438V3.42871C9.07129 2.83827 8.59044 2.35742 8 2.35742Z" fill="#EF9400" stroke="#FFB133"/>
</svg>
