<svg width="25" height="24" viewBox="0 0 25 24" fill="none" xmlns="http://www.w3.org/2000/svg">
<path d="M22.5 13C22.2348 13 21.9804 13.1054 21.7929 13.2929C21.6054 13.4804 21.5 13.7348 21.5 14V18.213C21.4992 18.9519 21.2053 19.6603 20.6828 20.1828C20.1603 20.7053 19.4519 20.9992 18.713 21H6.287C5.54809 20.9992 4.83966 20.7053 4.31717 20.1828C3.79468 19.6603 3.50079 18.9519 3.5 18.213V14C3.5 13.7348 3.39464 13.4804 3.20711 13.2929C3.01957 13.1054 2.76522 13 2.5 13C2.23478 13 1.98043 13.1054 1.79289 13.2929C1.60536 13.4804 1.5 13.7348 1.5 14V18.213C1.50132 19.4822 2.00609 20.699 2.90354 21.5965C3.80099 22.4939 5.01782 22.9987 6.287 23H18.713C19.9822 22.9987 21.199 22.4939 22.0965 21.5965C22.9939 20.699 23.4987 19.4822 23.5 18.213V14C23.5 13.7348 23.3946 13.4804 23.2071 13.2929C23.0196 13.1054 22.7652 13 22.5 13Z" fill="#0862BC"/>
<path d="M7.20643 8.70679L11.4994 4.41379V16.9998C11.4994 17.265 11.6048 17.5194 11.7923 17.7069C11.9799 17.8944 12.2342 17.9998 12.4994 17.9998C12.7646 17.9998 13.019 17.8944 13.2065 17.7069C13.3941 17.5194 13.4994 17.265 13.4994 16.9998V4.41379L17.7924 8.70679C17.981 8.88894 18.2336 8.98974 18.4958 8.98746C18.758 8.98518 19.0088 8.88001 19.1942 8.6946C19.3797 8.5092 19.4848 8.25838 19.4871 7.99619C19.4894 7.73399 19.3886 7.48139 19.2064 7.29279L13.2064 1.29279C13.0189 1.10532 12.7646 1 12.4994 1C12.2343 1 11.98 1.10532 11.7924 1.29279L5.79243 7.29279C5.61027 7.48139 5.50948 7.73399 5.51176 7.99619C5.51403 8.25838 5.6192 8.5092 5.80461 8.6946C5.99002 8.88001 6.24083 8.98518 6.50303 8.98746C6.76523 8.98974 7.01783 8.88894 7.20643 8.70679Z" fill="#0862BC"/>
</svg>
